<?xml version="1.0" encoding="UTF-8" standalone="no"?>
<svg
   xmlns:dc="http://purl.org/dc/elements/1.1/"
   xmlns:cc="http://creativecommons.org/ns#"
   xmlns:rdf="http://www.w3.org/1999/02/22-rdf-syntax-ns#"
   xmlns:svg="http://www.w3.org/2000/svg"
   xmlns="http://www.w3.org/2000/svg"
   xmlns:sodipodi="http://sodipodi.sourceforge.net/DTD/sodipodi-0.dtd"
   xmlns:inkscape="http://www.inkscape.org/namespaces/inkscape"
   version="1.1"
   x="0px"
   y="0px"
   viewBox="0 0 89.599998 97.900002"
   xml:space="preserve"
   id="svg18"
   sodipodi:docname="agenda.svg"
   inkscape:version="0.92.4 (5da689c313, 2019-01-14)"
   width="89.599998"
   height="97.900002"><metadata
     id="metadata24"><rdf:RDF><cc:Work
         rdf:about=""><dc:format>image/svg+xml</dc:format><dc:type
           rdf:resource="http://purl.org/dc/dcmitype/StillImage" /><dc:title></dc:title></cc:Work></rdf:RDF></metadata><defs
     id="defs22" /><sodipodi:namedview
     pagecolor="#ffffff"
     bordercolor="#666666"
     borderopacity="1"
     objecttolerance="10"
     gridtolerance="10"
     guidetolerance="10"
     inkscape:pageopacity="0"
     inkscape:pageshadow="2"
     inkscape:window-width="640"
     inkscape:window-height="480"
     id="namedview20"
     showgrid="false"
     inkscape:zoom="1.888"
     inkscape:cx="35.530932"
     inkscape:cy="36.4"
     inkscape:window-x="980"
     inkscape:window-y="56"
     inkscape:window-maximized="0"
     inkscape:current-layer="svg18"
     fit-margin-top="0"
     fit-margin-left="0"
     fit-margin-right="0"
     fit-margin-bottom="0" /><rect
     x="15.3"
     y="27.1"
     width="26.5"
     height="6.1999998"
     id="rect2" /><rect
     x="15.099999"
     y="74.699997"
     width="15.4"
     height="6.1999998"
     id="rect4" /><rect
     x="15.099999"
     y="58.900002"
     width="19.4"
     height="6.0999999"
     id="rect6" /><rect
     x="15.2"
     y="43.799999"
     width="22.1"
     height="5.8000002"
     id="rect8" /><path
     d="M 45.8,92.3 H 5.7 V 5.7 h 48.5 v 17.7 h 17.7 v 15.1 h 5.7 V 17 L 60.6,0 H 0 V 97.9 H 45.8 Z M 58.8,5 72.5,18.7 H 58.8 Z"
     id="path10"
     inkscape:connector-curvature="0" /><path
     d="M 64.8,43.4 C 51.1,43.4 40,54.5 40,68.2 40,81.9 51.1,93.1 64.8,93.1 78.5,93.1 89.6,82 89.6,68.3 89.6,54.6 78.5,43.4 64.8,43.4 Z M 76.3,71.5 H 65 c -1.2,0 -2.2,-1 -2.2,-2.2 v -13 c 0,-1.2 1,-2.2 2.2,-2.2 1.2,0 2.2,1 2.2,2.2 v 10.8 h 9.1 c 1.2,0 2.2,1 2.2,2.2 0,1.2 -0.9,2.2 -2.2,2.2 z"
     id="path12"
     inkscape:connector-curvature="0" /></svg>