<?xml version="1.0" encoding="UTF-8" standalone="no"?>
<svg
   xmlns:dc="http://purl.org/dc/elements/1.1/"
   xmlns:cc="http://creativecommons.org/ns#"
   xmlns:rdf="http://www.w3.org/1999/02/22-rdf-syntax-ns#"
   xmlns:svg="http://www.w3.org/2000/svg"
   xmlns="http://www.w3.org/2000/svg"
   xmlns:sodipodi="http://sodipodi.sourceforge.net/DTD/sodipodi-0.dtd"
   xmlns:inkscape="http://www.inkscape.org/namespaces/inkscape"
   id="b8ea24f2-0d0e-4134-9f6b-a081050070ad"
   data-name="Layer 1"
   width="1807.6271"
   height="868.73383"
   viewBox="0 0 1807.627 868.73382"
   version="1.1"
   sodipodi:docname="enter.svg"
   inkscape:version="0.92.4 (5da689c313, 2019-01-14)">
  <metadata
     id="metadata65">
    <rdf:RDF>
      <cc:Work
         rdf:about="">
        <dc:format>image/svg+xml</dc:format>
        <dc:type
           rdf:resource="http://purl.org/dc/dcmitype/StillImage" />
        <dc:title>enter</dc:title>
      </cc:Work>
    </rdf:RDF>
  </metadata>
  <defs
     id="defs63" />
  <sodipodi:namedview
     pagecolor="#ffffff"
     bordercolor="#666666"
     borderopacity="1"
     objecttolerance="10"
     gridtolerance="10"
     guidetolerance="10"
     inkscape:pageopacity="0"
     inkscape:pageshadow="2"
     inkscape:window-width="2560"
     inkscape:window-height="1376"
     id="namedview61"
     showgrid="false"
     inkscape:zoom="0.57875767"
     inkscape:cx="1258.5645"
     inkscape:cy="434.36699"
     inkscape:window-x="0"
     inkscape:window-y="27"
     inkscape:window-maximized="1"
     inkscape:current-layer="b8ea24f2-0d0e-4134-9f6b-a081050070ad"
     fit-margin-top="0"
     fit-margin-left="0"
     fit-margin-right="0"
     fit-margin-bottom="0" />
  <title
     id="title2">enter</title>
  <path
     d="m 1556.9398,538.19647 c 427.4387,285.99636 288.5192,392.56531 -266.6202,295.50409 -145.0499,-25.36071 -266.6202,-132.30169 -266.6202,-295.50409 0,-163.2024 119.37,-295.50409 266.6202,-295.50409 147.2502,0 130.9797,204.74792 266.6202,295.50409 z"
     id="path4"
     style="fill:#b3b3b3"
     inkscape:connector-curvature="0" />
  <ellipse
     cx="1595.1554"
     cy="801.70612"
     rx="168.85948"
     ry="15.10848"
     id="ellipse6"
     style="opacity:0.1" />
  <ellipse
     cx="1262.1272"
     cy="303.70615"
     rx="89.5"
     ry="15.10848"
     id="ellipse8"
     style="opacity:0.1" />
  <path
     d="m 1257.4364,340.89918 a 203.53841,203.53841 0 0 0 -183.6302,115.65987 203.02876,203.02876 0 0 1 150.747,-66.77949 c 112.3982,0 203.5201,91.12188 203.5201,203.52011 a 202.64833,202.64833 0 0 1 -19.8899,87.86024 202.7816,202.7816 0 0 0 52.773,-136.74062 c 10e-5,-112.39823 -91.1218,-203.52011 -203.52,-203.52011 z"
     id="path10"
     inkscape:connector-curvature="0"
     style="opacity:0.1" />
  <path
     d="m 1428.0734,592.411 a 202.6483,202.6483 0 0 1 -19.8899,87.86024 203.02876,203.02876 0 0 1 -150.7471,66.77949 c -112.3981,0 -203.5201,-91.12193 -203.5201,-203.5201 a 202.64811,202.64811 0 0 1 19.8899,-87.86029 203.02877,203.02877 0 0 1 150.747,-66.7795 c 112.3982,0 203.5202,91.12188 203.5202,203.52016 z"
     id="path12"
     inkscape:connector-curvature="0"
     style="opacity:0.3;fill:#ffa200" />
  <path
     d="m 1257.4367,748.05046 c -112.773,0 -204.5205,-91.74707 -204.5205,-204.51953 a 202.601,202.601 0 0 1 19.9882,-88.293 204.539,204.539 0 0 1 184.5323,-116.22751 c 112.7729,0 204.5199,91.74756 204.5199,204.52051 a 204.50619,204.50619 0 0 1 -204.5199,204.51953 z m 0,-407.04 c -77.4893,0 -149.2149,45.17627 -182.7286,115.09277 a 200.60547,200.60547 0 0 0 -19.792,87.42774 c 0,111.66992 90.8501,202.51953 202.5206,202.51953 a 202.50552,202.50552 0 0 0 202.5199,-202.51953 c 10e-5,-111.67045 -90.85,-202.52055 -202.5199,-202.52055 z"
     id="path14"
     inkscape:connector-curvature="0"
     style="fill:#ffffff" />
  <path
     d="m 1723.0551,750.63478 c -14.7816,19.33172 -13.0913,45.458 -13.0913,45.458 0,0 25.6559,-5.21661 40.4375,-24.54834 14.7816,-19.33173 13.0913,-45.458 13.0913,-45.458 0,0 -25.656,5.21661 -40.4375,24.54834 z"
     id="path16"
     inkscape:connector-curvature="0"
     style="fill:#d0cde1" />
  <path
     d="m 1732.7418,754.97643 c -2.8685,24.16572 -22.286,41.72709 -22.286,41.72709 0,0 -14.7668,-21.619 -11.8984,-45.78475 2.8685,-24.16575 22.286,-41.7271 22.286,-41.7271 0,0 14.7669,21.61903 11.8984,45.78476 z"
     id="path18"
     inkscape:connector-curvature="0"
     style="fill:#ffa200" />
  <circle
     cx="1196.5273"
     cy="104.91071"
     r="83.979156"
     id="circle20"
     style="fill:#b3b3b3" />
  <path
     d="m 1378.6007,190.533 c 0.041,83.8842 -49.8135,113.19375 -111.3235,113.22362 q -2.1432,10e-4 -4.2657,-0.0458 -4.2761,-0.0902 -8.4632,-0.38554 c -55.5168,-3.90372 -98.6668,-34.67199 -98.7046,-112.6841 -0.039,-80.73288 103.0935,-182.66632 110.8281,-190.20333 0.01,0 0.01,0 0.014,-0.007 C 1266.9797,0.1436 1267.1301,0 1267.1301,0 c 0,0 111.4302,106.65544 111.471,190.53285 z"
     id="path22"
     inkscape:connector-curvature="0"
     style="fill:#ffa200" />
  <path
     d="m 1263.2172,290.92745 40.7079,-56.9361 -40.8074,63.18424 -0.1062,6.53524 q -4.2761,-0.0902 -8.4632,-0.38554 l 4.348,-83.92055 -0.034,-0.64937 0.075,-0.12312 0.4132,-7.92991 -40.9714,-63.30175 41.0916,57.36122 0.1034,1.68162 3.2846,-63.40527 -35.0798,-65.41694 35.505,54.27411 3.3883,-131.45748 0.013,-0.43748 2e-4,0.43063 -0.5237,103.66783 34.864,-41.11483 -35.0101,50.04268 -0.8953,56.7732 32.5606,-54.4985 -32.6864,62.8453 -0.4973,31.56877 47.2544,-75.86125 -47.4337,86.87409 z"
     id="path24"
     inkscape:connector-curvature="0"
     style="fill:#3f3d56" />
  <path
     d="m 1596.6551,238.59383 c -10.6746,-18.03682 -31.7935,-18.87742 -31.7935,-18.87742 0,0 -20.5792,-2.63164 -33.7806,24.83865 -12.3047,25.60458 -29.2869,50.32632 -2.734,56.32016 l 4.7963,-14.928 2.9703,16.03938 a 103.89546,103.89546 0 0 0 11.361,0.19416 c 28.436,-0.91808 55.517,0.26861 54.645,-9.93543 -1.1591,-13.56483 4.8067,-36.29648 -5.4645,-53.6515 z"
     id="path26"
     inkscape:connector-curvature="0"
     style="fill:#2f2e41" />
  <polygon
     points="525.862,407.843 528.608,435.301 592.22,428.437 593.593,407.843 "
     id="polygon28"
     style="fill:#a0616a"
     transform="translate(1023.6994,1.5e-4)" />
  <path
     d="m 1542.697,422.94506 -1.8306,16.01748 c 0,0 -21.0515,29.2891 -19.221,79.62975 1.8306,50.34065 -28.8314,274.12771 -6.8646,275.95827 21.9668,1.83056 61.3241,4.57642 63.1546,-2.28821 1.8306,-6.86463 5.4917,-267.26307 5.4917,-267.26307 0,0 9.6105,267.588 26.0856,268.50324 16.4752,0.91524 71.8499,2.74586 71.8499,-4.11878 0,-6.86464 -48.5101,-313.35218 -48.5101,-313.35218 l -7.7799,-25.628 -7.7799,-31.57731 c 0,0 -48.5101,8.23756 -61.7817,5.03406 -13.2717,-3.2035 -12.814,-0.91525 -12.814,-0.91525 z"
     id="path30"
     inkscape:connector-curvature="0"
     style="fill:#2f2e41" />
  <circle
     cx="1564.6639"
     cy="266.88904"
     r="29.289101"
     id="circle32"
     style="fill:#a0616a" />
  <path
     d="m 1615.9197,315.39913 -5.5603,8.09112 -3.5604,5.17593 -5.9815,8.69978 -29.7467,2.28821 c 0,0 -7.2262,-2.334 -15.5644,-5.7434 -3.0799,-1.2631 -6.3155,-2.67264 -9.3908,-4.16912 -11.9308,-5.79376 -21.5047,-12.86434 -10.7409,-17.546 a 35.73415,35.73415 0 0 0 5.4871,-2.94722 27.877,27.877 0 0 0 4.398,-3.56044 23.9886,23.9886 0 0 0 6.59,-21.40852 l 28.8315,-4.11878 c -0.8375,7.31312 6.4345,15.28982 14.5851,21.80208 2.6771,2.14635 5.4551,4.12792 8.0682,5.87612 6.8509,4.58557 12.5851,7.56024 12.5851,7.56024 z"
     id="path34"
     inkscape:connector-curvature="0"
     style="fill:#a0616a" />
  <path
     d="m 1576.5625,324.09434 c 0,0 -28.145,-4.80525 -34.552,-14.87338 0,0 -27.6873,3.43232 -25.3991,18.07687 2.2882,14.64455 25.1703,94.73195 25.1703,94.73195 0,0 57.2053,-10.98342 78.2568,-2.74586 l 12.814,-102.05422 c 0,0 -4.5764,-10.06813 -13.2716,-7.32227 -8.6952,2.74586 -12.1275,0.22882 -12.1275,0.22882 0,0 -9.8394,13.95809 -30.8909,13.95809 z"
     id="path36"
     inkscape:connector-curvature="0"
     style="fill:#d0cde1" />
  <path
     d="m 1602.1905,484.72676 c 0,0 19.6786,21.96683 8.6952,25.628 -10.9834,3.66117 -24.255,-14.64455 -24.255,-14.64455 z"
     id="path38"
     inkscape:connector-curvature="0"
     style="fill:#a0616a" />
  <path
     d="m 1608.5975,486.55733 c 0,0 -16.0175,10.98342 -10.0682,18.30569 5.9494,7.32227 26.5433,-6.407 26.5433,-9.15284 0,-2.74584 -16.4751,-9.15285 -16.4751,-9.15285 z"
     id="path40"
     inkscape:connector-curvature="0"
     style="fill:#a0616a" />
  <path
     d="m 1569.2402,427.06384 -13.2716,2.28821 -8.6952,-64.52755 a 231.696,231.696 0 0 0 -1.1579,-35.08285 c -0.9702,-7.77991 -2.5902,-15.2578 -5.2537,-20.49323 a 27.877,27.877 0 0 0 4.3979,-3.56044 c 3.1853,5.04778 8.9973,15.73829 10.2467,28.22279 a 45.47952,45.47952 0 0 1 0,9.40454 c -2.2882,21.50919 -1.8306,25.628 -1.8306,25.628 z"
     id="path42"
     inkscape:connector-curvature="0"
     style="fill:#2f2e41" />
  <path
     d="m 1538.5782,313.11092 c 0,0 -21.5092,-5.94935 -23.3397,6.86464 -1.8306,12.81399 0.4576,45.76422 5.4917,58.12056 5.034,12.35634 22.4244,52.62888 22.4244,52.62888 0,0 31.5773,40.27252 32.9503,49.883 1.3729,9.61048 8.2375,19.67862 8.2375,19.67862 l 21.9668,-14.18693 -43.0184,-72.76512 -18.7633,-50.34064 c 0,0 7.78,-45.76423 -5.9493,-49.88301 z"
     id="path44"
     inkscape:connector-curvature="0"
     style="fill:#d0cde1" />
  <path
     d="m 1622.7844,314.94149 10.0681,2.28821 c 0,0 9.1528,39.35724 5.4917,60.40878 -3.6611,21.05154 -4.1188,28.37382 -4.1188,28.37382 l -3.2035,59.95113 c 0,0 0.9153,38.44195 -5.4917,32.4926 -6.407,-5.94935 -19.221,-8.6952 -19.221,-8.6952 0,0 1.3729,-16.93277 6.407,-21.05155 0,0 5.9494,-31.57731 2.2882,-45.30658 -3.6611,-13.72927 7.78,-108.46121 7.78,-108.46121 z"
     id="path46"
     inkscape:connector-curvature="0"
     style="fill:#d0cde1" />
  <path
     d="m 1626.4455,359.33279 -11.6699,67.50221 -7.0934,-2.97468 12.3563,-64.52755 -13.2395,-30.66661 -11.5326,-26.70342 c 2.6771,2.14635 5.4551,4.12792 8.0682,5.87612 l 7.0248,15.65137 z"
     id="path48"
     inkscape:connector-curvature="0"
     style="fill:#2f2e41" />
  <polygon
     points="531.583,246.482 531.583,255.996 538.43,255.732 542.404,240.332 544.888,256.726 569.23,256.229 568.236,236.855 547.372,225.926 518.559,230.397 512.598,256.726 527.437,256.155 "
     id="polygon50"
     style="fill:#2f2e41"
     transform="translate(1023.6994,1.5e-4)" />
  <ellipse
     cx="1550.7188"
     cy="796.37372"
     rx="14.21975"
     ry="5.3323998"
     id="ellipse52"
     style="fill:#2f2e41" />
  <ellipse
     cx="1646.702"
     cy="796.37372"
     rx="14.21975"
     ry="5.3323998"
     id="ellipse54"
     style="fill:#2f2e41" />
  <path
     d="m 1242.0172,558.37532 c -14.7854,3.27254 -34.4628,5.267 -48.8008,3.18441 l 17.999,13.70676 -50.3885,32.49881 2.71,4.20186 50.3887,-32.49887 5.0654,22.05426 c 4.0165,-13.92055 13.9494,-31.0237 23.0262,-43.14723 z"
     id="path58"
     style="fill:#000000"
     inkscape:connector-curvature="0" />
  <g
     id="g1076"
     transform="matrix(4.277538,0,0,4.277538,1168.2673,409.91462)">
    <g
       transform="translate(-10.076211,-8.721249)"
       style="display:inline"
       inkscape:label="durr"
       id="layer8">
      <g
         inkscape:export-ydpi="299.96201"
         inkscape:export-xdpi="299.96201"
         id="flowRoot4504-8-4"
         style="font-style:normal;font-variant:normal;font-weight:bold;font-stretch:normal;font-size:20px;line-height:25px;font-family:Arial;-inkscape-font-specification:'Arial, Bold';text-align:start;letter-spacing:0px;word-spacing:0px;writing-mode:lr-tb;text-anchor:start;display:inline;opacity:1;fill:#000000;fill-opacity:1;stroke:none;stroke-width:1px;stroke-linecap:butt;stroke-linejoin:miter;stroke-opacity:1"
         transform="matrix(0.26458333,0,0,0.26458333,23.911751,-45.388537)"
         aria-label="lad">
        <path
           sodipodi:nodetypes="cscsccscscc"
           inkscape:connector-curvature="0"
           id="path4584-3"
           style="font-style:normal;font-variant:normal;font-weight:bold;font-stretch:normal;font-size:96px;font-family:'Montserrat Alternates';-inkscape-font-specification:'Montserrat Alternates Bold';fill:#ffa200;fill-opacity:1"
           d="m 95.601062,269.44343 -0.0011,38.5225 c -5.7e-5,1.984 0.513084,3.552 1.537084,4.704 1.024,1.088 2.240001,1.632 3.648004,1.632 2.688,0 3.65097,0.033 6.816,0.0205 l 0.0103,12.55209 c -5.1871,0.009 -3.85034,0.003 -8.842344,0.003 -4.928,0 -9.12,-1.632 -12.576,-4.896 -3.392,-3.264 -5.088,-7.712 -5.088,-13.344 v -39.1945 z" />
      </g>
      <path
         sodipodi:nodetypes="ssscscccccccsscscscsss"
         inkscape:export-ydpi="299.96201"
         inkscape:export-xdpi="299.96201"
         id="path4588-1"
         style="font-style:normal;font-variant:normal;font-weight:bold;font-stretch:normal;font-size:96px;line-height:25px;font-family:'Montserrat Alternates';-inkscape-font-specification:'Montserrat Alternates Bold';text-align:start;letter-spacing:0px;word-spacing:0px;writing-mode:lr-tb;text-anchor:start;opacity:1;fill:#ffa200;fill-opacity:1;stroke:none;stroke-width:0.26458332px;stroke-linecap:butt;stroke-linejoin:miter;stroke-opacity:1"
         d="m 75.669676,41.098735 c -1.608667,0 -3.048,-0.6858 -4.318,-2.0574 -1.27,-1.3716 -1.905,-3.0734 -1.905,-5.105399 0,-2.032 0.618067,-3.691467 1.8542,-4.9784 1.236133,-1.303867 2.683933,-1.9558 4.3434,-1.9558 1.659469,0 3.014136,0.5842 4.064003,1.7526 l 1.77e-4,-5.64119 1.905,-1.700293 1.905,1.700293 -1.77e-4,17.782389 h -3.81 v -1.8034 c -1.0668,1.337733 -2.413001,2.0066 -4.038603,2.0066 z m -2.3876,-7.010399 c 0,1.100666 0.3302,2.006599 0.9906,2.717799 0.6604,0.694267 1.430867,1.0414 2.3114,1.0414 0.880535,0 1.625603,-0.347133 2.235203,-1.0414 0.626533,-0.7112 0.9398,-1.617133 0.9398,-2.717799 0,-1.1176 -0.313267,-2.040467 -0.9398,-2.7686 -0.6096,-0.745067 -1.363134,-1.1176 -2.260603,-1.1176 -0.897467,0 -1.667933,0.372533 -2.3114,1.1176 -0.643467,0.745067 -0.9652,1.667933 -0.9652,2.7686 z"
         inkscape:connector-curvature="0" />
      <g
         inkscape:export-ydpi="299.96201"
         inkscape:export-xdpi="299.96201"
         id="flowRoot4504-6"
         style="font-style:normal;font-variant:normal;font-weight:bold;font-stretch:normal;font-size:20px;line-height:25px;font-family:Arial;-inkscape-font-specification:'Arial, Bold';text-align:start;letter-spacing:0px;word-spacing:0px;writing-mode:lr-tb;text-anchor:start;opacity:1;fill:#ffffff;fill-opacity:1;stroke:none;stroke-width:1px;stroke-linecap:butt;stroke-linejoin:miter;stroke-opacity:1"
         transform="matrix(0.26458333,0,0,0.26458333,-10.022048,-59.473525)"
         aria-label="data">
        <path
           inkscape:connector-curvature="0"
           id="path4612-4"
           style="font-style:normal;font-variant:normal;font-weight:bold;font-stretch:normal;font-size:96px;font-family:'Montserrat Alternates';-inkscape-font-specification:'Montserrat Alternates Bold';fill:#ffffff;fill-opacity:1"
           d="m 171.53287,326.87793 q -9.888,0 -17.28,-7.392 -7.392,-7.392 -7.392,-19.392 0,-12.096 7.584,-19.296 7.584,-7.2 17.568,-7.2 7.776,0 13.536,5.184 v -4.32 h 14.496 v 51.648 h -14.496 v -4.224 q -6.144,4.992 -14.016,4.992 z m -10.176,-26.496 q 0,6.336 3.744,10.368 3.744,3.936 8.736,3.936 4.992,0 8.448,-3.936 3.456,-4.032 3.456,-10.272 0,-6.336 -3.456,-10.56 -3.456,-4.224 -8.544,-4.224 -5.088,0 -8.736,4.224 -3.648,4.128 -3.648,10.464 z" />
        <path
           sodipodi:nodetypes="sssssccccccsscscssscs"
           inkscape:connector-curvature="0"
           id="path4616-0"
           style="font-style:normal;font-variant:normal;font-weight:bold;font-stretch:normal;font-size:96px;font-family:'Montserrat Alternates';-inkscape-font-specification:'Montserrat Alternates Bold';fill:#ffffff;fill-opacity:1"
           d="m 264.91341,326.87793 c -6.592,0 -12.352,-2.464 -17.28,-7.392 -4.928,-4.928 -7.392,-11.392 -7.392,-19.392 0,-8.064 2.528,-14.496 7.584,-19.296 5.056,-4.8 10.912,-7.2 17.568,-7.2 5.184,0 9.696,1.728 13.536,5.184 v -4.32 h 14.496 v 52.44075 h -14.496 v -5.01675 c -4.096,3.328 -8.768,4.992 -14.016,4.992 z m -10.176,-26.496 c 0,4.224 1.248,7.68 3.744,10.368 2.496,2.624 5.408,3.936 8.736,3.936 3.328,0 6.144,-1.312 8.448,-3.936 2.304,-2.688 3.456,-6.112 3.456,-10.272 0,-4.224 -1.152,-7.744 -3.456,-10.56 -2.304,-2.816 -5.152,-4.224 -8.544,-4.224 -3.392,0 -6.304,1.408 -8.736,4.224 -2.432,2.752 -3.648,6.24 -3.648,10.464 z" />
        <path
           sodipodi:nodetypes="cccccccccccc"
           inkscape:connector-curvature="0"
           id="path4614-2"
           style="font-style:normal;font-variant:normal;font-weight:bold;font-stretch:normal;font-size:96px;font-family:'Montserrat Alternates';-inkscape-font-specification:'Montserrat Alternates Bold';fill:#ffffff;fill-opacity:1"
           d="m 209.3575,326.42845 4e-5,-17.79057 -7.6e-4,-49.632 14.49624,-10e-6 v 15.456 h 12.48 v 11.232 h -12.48 l -10e-4,22.272 -3e-5,15.24998 -7.24725,6.42519 -7.24724,-6.42519" />
      </g>
      <path
         inkscape:export-ydpi="299.96201"
         inkscape:export-xdpi="299.96201"
         sodipodi:nodetypes="cccsccssscccccsccsc"
         inkscape:connector-curvature="0"
         id="path1711-6-2-1"
         d="m 17.452682,8.7212544 -1.906485,1.9064846 1.940098,1.940098 h 0.282821 c 0.946542,0 1.789879,0.223753 2.529901,0.671209 0.740024,0.430247 1.316456,1.041043 1.729492,1.832696 0.430247,0.791651 0.645475,1.703714 0.645475,2.736304 0,1.015381 -0.197915,1.918919 -0.593741,2.710572 -0.395827,0.791653 -0.946686,1.40271 -1.652289,1.832957 -0.252626,0.154039 -0.518946,0.279256 -0.798045,0.378146 0.194754,0.207133 1.7463,1.536742 1.7463,1.536742 l -1.241054,2.325074 c 0.957959,-0.187072 1.84731,-0.490146 2.667767,-0.909914 1.497255,-0.757234 2.650383,-1.824061 3.459245,-3.200848 0.826073,-1.376788 1.239217,-2.951585 1.239217,-4.724198 0,-1.772614 -0.404618,-3.338623 -1.21348,-4.6982 C 25.479041,11.68159 24.343225,10.614499 22.880388,9.8572668 21.434762,9.1000353 19.765401,8.7212544 17.872319,8.7212544 Z"
         style="font-style:normal;font-variant:normal;font-weight:bold;font-stretch:normal;font-size:192px;line-height:25px;font-family:Montserrat;-inkscape-font-specification:'Montserrat Bold';text-align:start;letter-spacing:0px;word-spacing:0px;writing-mode:lr-tb;text-anchor:start;fill:#ffffff;fill-opacity:1;stroke:none;stroke-width:0.13445187px;stroke-linecap:butt;stroke-linejoin:miter;stroke-opacity:1" />
      <path
         inkscape:export-ydpi="299.96201"
         inkscape:export-xdpi="299.96201"
         sodipodi:nodetypes="ssssscccccccsscscssscs"
         id="path4586-7"
         style="font-style:normal;font-variant:normal;font-weight:bold;font-stretch:normal;font-size:96px;line-height:25px;font-family:'Montserrat Alternates';-inkscape-font-specification:'Montserrat Alternates Bold';text-align:start;letter-spacing:0px;word-spacing:0px;writing-mode:lr-tb;text-anchor:start;opacity:1;fill:#ffa200;fill-opacity:1;stroke:none;stroke-width:0.26458332px;stroke-linecap:butt;stroke-linejoin:miter;stroke-opacity:1"
         d="m 60.069768,41.098735 c -1.744133,0 -3.268133,-0.651933 -4.572,-1.9558 -1.303866,-1.303867 -1.9558,-3.014133 -1.9558,-5.130799 0,-2.1336 0.668867,-3.8354 2.0066,-5.1054 1.337734,-1.27 2.887134,-1.905 4.6482,-1.905 1.3716,0 2.5654,0.4572 3.5814,1.3716 l 2.88e-4,-1.35286 1.9175,-1.700476 1.9175,1.700476 1.12e-4,13.875059 h -3.8354 v -1.1176 c -1.083733,0.880531 -2.319866,1.3208 -3.7084,1.3208 z m -2.6924,-7.010399 c 0,1.117599 0.3302,2.031999 0.9906,2.743199 0.6604,0.694267 1.430867,1.0414 2.3114,1.0414 0.880534,0 1.6256,-0.347133 2.2352,-1.0414 0.6096,-0.7112 0.9144,-1.617133 0.9144,-2.717799 0,-1.1176 -0.3048,-2.048933 -0.9144,-2.794 -0.6096,-0.745067 -1.363133,-1.1176 -2.2606,-1.1176 -0.897466,0 -1.667933,0.372533 -2.3114,1.1176 -0.643466,0.728133 -0.9652,1.651 -0.9652,2.7686 z"
         inkscape:connector-curvature="0" />
      <path
         sodipodi:nodetypes="ccccccc"
         inkscape:connector-curvature="0"
         id="rect2037"
         d="m 79.708456,20.517949 1.905,-1.7 1.905,1.7 V 22.218 l -1.905,-1.700015 -1.905,1.700015 z"
         style="opacity:1;fill:#ffa200;fill-opacity:1;fill-rule:evenodd;stroke:none;stroke-width:1.05833328;stroke-linecap:butt;stroke-linejoin:miter;stroke-miterlimit:4;stroke-dasharray:none;stroke-opacity:0" />
      <path
         sodipodi:nodetypes="ccccccc"
         inkscape:connector-curvature="0"
         id="rect2037-6"
         d="m 79.708456,17.927898 1.905,-1.7 1.905,1.7 v 1.700051 l -1.905,-1.700015 -1.905,1.700015 z"
         style="display:inline;opacity:1;fill:#ffa200;fill-opacity:1;fill-rule:evenodd;stroke:none;stroke-width:1.05833328;stroke-linecap:butt;stroke-linejoin:miter;stroke-miterlimit:4;stroke-dasharray:none;stroke-opacity:0" />
    </g>
    <g
       transform="translate(-10.076211,-8.721249)"
       inkscape:label="L"
       id="layer9">
      <path
         inkscape:export-ydpi="299.96201"
         inkscape:export-xdpi="299.96201"
         sodipodi:nodetypes="cczcccccccccc"
         inkscape:connector-curvature="0"
         id="path1711-6-2-1-9"
         d="m 10.076211,8.721255 v 18.096381 c 0,0 6.723806,0.0017 7.275896,0 0.552089,-0.0017 0.786041,-0.100838 0.786041,-0.100838 l 1.26597,-1.979505 -2.025955,-1.740245 h -2.577755 v -10.42921 l -0.89967,-0.899934 -1.040165,-1.040164 -5.55e-4,-2.68e-4 c 1.3e-4,1.33e-4 0.957608,-0.957398 1.906482,-1.906223 z"
         style="font-style:normal;font-variant:normal;font-weight:bold;font-stretch:normal;font-size:192px;line-height:25px;font-family:Montserrat;-inkscape-font-specification:'Montserrat Bold';text-align:start;letter-spacing:0px;word-spacing:0px;writing-mode:lr-tb;text-anchor:start;fill:#ffa200;fill-opacity:1;stroke:none;stroke-width:0.13445187px;stroke-linecap:butt;stroke-linejoin:miter;stroke-opacity:1" />
    </g>
  </g>
  <path
     inkscape:connector-curvature="0"
     style="fill:#1a1a1a"
     d="m 1307.271,641.96339 a 99.80371,99.80371 0 0 1 -98.7915,5.75454 l 2.2011,-4.48976 a 95.5,95.5 0 1 0 -53.3445,-82.70937 l -4.9979,0.15331 a 100.50454,100.50454 0 1 1 154.9328,81.29128 z"
     id="path56" />
  <text
     xml:space="preserve"
     style="font-style:normal;font-variant:normal;font-weight:normal;font-stretch:normal;font-size:254.30789185px;line-height:80.50000072%;font-family:'Droid Sans';-inkscape-font-specification:'Droid Sans';text-align:start;letter-spacing:0px;word-spacing:0px;text-anchor:start;display:inline;opacity:0.97000002;fill:#000000;fill-opacity:0.98823529;stroke:none;stroke-width:0.17577887px;stroke-linecap:butt;stroke-linejoin:miter;stroke-miterlimit:100000;stroke-opacity:1"
     x="541.9187"
     y="488.10077"
     id="text5839-9-5-8"
     inkscape:export-filename="/home/adina/repos/datalad-handbook/docs/artwork/src/local_wf_simple.png"
     inkscape:export-xdpi="272.60767"
     inkscape:export-ydpi="272.60767"><tspan
       sodipodi:role="line"
       style="font-style:normal;font-variant:normal;font-weight:normal;font-stretch:normal;font-size:280.97454834px;line-height:80.50000072%;font-family:'Latin Modern Sans Demi Cond';-inkscape-font-specification:'Latin Modern Sans Demi Cond';text-align:center;text-anchor:middle;fill:#000000;fill-opacity:0.98823529;stroke-width:0.17577887px;stroke-linecap:butt;stroke-linejoin:round;stroke-miterlimit:100000"
       x="586.36969"
       y="488.10077"
       id="tspan1662">Intro-     </tspan><tspan
       sodipodi:role="line"
       style="font-style:normal;font-variant:normal;font-weight:normal;font-stretch:normal;font-size:280.97454834px;line-height:80.50000072%;font-family:'Latin Modern Sans Demi Cond';-inkscape-font-specification:'Latin Modern Sans Demi Cond';text-align:center;text-anchor:middle;fill:#000000;fill-opacity:0.98823529;stroke-width:0.17577887px;stroke-linecap:butt;stroke-linejoin:round;stroke-miterlimit:100000"
       x="541.9187"
       y="731.05603"
       id="tspan1666">   duction</tspan></text>
  <flowRoot
     xml:space="preserve"
     id="flowRoot1670"
     style="font-style:normal;font-weight:normal;font-size:40px;line-height:1.25;font-family:sans-serif;text-align:center;letter-spacing:0px;word-spacing:0px;text-anchor:middle;fill:#000000;fill-opacity:1;stroke:none"
     transform="translate(87.434889)"><flowRegion
       id="flowRegion1672"><rect
         id="rect1674"
         width="22.461905"
         height="50.107327"
         x="-371.48535"
         y="-174.88086" /></flowRegion><flowPara
       id="flowPara1676"></flowPara></flowRoot></svg>
