<?xml version="1.0" encoding="UTF-8" standalone="no"?>
<!-- Created with Inkscape (http://www.inkscape.org/) -->

<svg
   xmlns:dc="http://purl.org/dc/elements/1.1/"
   xmlns:cc="http://creativecommons.org/ns#"
   xmlns:rdf="http://www.w3.org/1999/02/22-rdf-syntax-ns#"
   xmlns:svg="http://www.w3.org/2000/svg"
   xmlns="http://www.w3.org/2000/svg"
   xmlns:sodipodi="http://sodipodi.sourceforge.net/DTD/sodipodi-0.dtd"
   xmlns:inkscape="http://www.inkscape.org/namespaces/inkscape"
   width="149.07607mm"
   height="43.315372mm"
   viewBox="0 0 149.07607 43.315372"
   version="1.1"
   id="svg2514"
   inkscape:version="0.92.4 (5da689c313, 2019-01-14)"
   sodipodi:docname="fzj_logo.svg">
  <defs
     id="defs2508" />
  <sodipodi:namedview
     id="base"
     pagecolor="#ffffff"
     bordercolor="#666666"
     borderopacity="1.0"
     inkscape:pageopacity="0.0"
     inkscape:pageshadow="2"
     inkscape:zoom="0.35"
     inkscape:cx="1598.8614"
     inkscape:cy="-409.57276"
     inkscape:document-units="mm"
     inkscape:current-layer="layer1"
     showgrid="false"
     fit-margin-top="0"
     fit-margin-left="0"
     fit-margin-right="0"
     fit-margin-bottom="0"
     inkscape:window-width="2560"
     inkscape:window-height="1359"
     inkscape:window-x="0"
     inkscape:window-y="44"
     inkscape:window-maximized="1" />
  <metadata
     id="metadata2511">
    <rdf:RDF>
      <cc:Work
         rdf:about="">
        <dc:format>image/svg+xml</dc:format>
        <dc:type
           rdf:resource="http://purl.org/dc/dcmitype/StillImage" />
        <dc:title></dc:title>
      </cc:Work>
    </rdf:RDF>
  </metadata>
  <g
     inkscape:label="Layer 1"
     inkscape:groupmode="layer"
     id="layer1"
     transform="translate(596.90113,2.848162)">
    <path
       inkscape:connector-curvature="0"
       id="path71"
       style="fill:#023d6b;stroke-width:0.44303134;stroke-linecap:butt;stroke-linejoin:round;stroke-miterlimit:100000"
       d="m -506.74485,32.462685 h -0.61195 a 0.21992123,0.21992123 0 0 0 -0.21993,0.229479 v 2.68687 c 0,0.793631 -0.40159,1.223909 -1.01355,1.223909 -0.61195,0 -0.95618,-0.430278 -0.95618,-1.223909 v -2.68687 a 0.23904482,0.23904482 0 0 0 -0.23904,-0.229479 h -0.60239 a 0.22948303,0.22948303 0 0 0 -0.22949,0.229479 v 2.562561 c 0,1.386469 0.56415,2.247019 1.73069,2.247019 a 1.4438307,1.4438307 0 0 0 1.31953,-0.631079 v 0.30598 a 0.21992123,0.21992123 0 0 0 0.21992,0.229478 h 0.61195 a 0.22948303,0.22948303 0 0 0 0.22948,-0.229478 v -4.484481 a 0.22948303,0.22948303 0 0 0 -0.23904,-0.229479 z m -7.64944,-0.10518 a 1.5107633,1.5107633 0 0 0 -1.36733,0.669319 v -2.30438 a 0.23904482,0.23904482 0 0 0 -0.23905,-0.239059 h -0.6024 a 0.22948303,0.22948303 0 0 0 -0.22948,0.239059 v 6.454201 a 0.21992123,0.21992123 0 0 0 0.22948,0.229478 h 0.64065 a 0.22948303,0.22948303 0 0 0 0.23904,-0.229478 v -2.677301 c 0,-0.79363 0.43028,-1.233471 1.0518,-1.233471 0.62152,0 1.04223,0.439841 1.04223,1.233471 v 2.677301 a 0.22948303,0.22948303 0 0 0 0.22949,0.229478 h 0.60239 a 0.22948303,0.22948303 0 0 0 0.23905,-0.229478 v -2.562561 c -0.01,-1.348211 -0.59283,-2.256579 -1.80718,-2.256579 z m 1.63507,-27.5762207 h -2.38089 a 0.88924675,0.88924675 0 0 0 -0.88924,0.88925 V 17.029954 c 0,2.95459 -1.43427,4.21675 -3.47094,4.21675 -2.03666,0 -3.41356,-1.26216 -3.41356,-4.21675 V 5.6705343 a 0.88924675,0.88924675 0 0 0 -0.88925,-0.88925 h -2.38088 a 0.88924675,0.88924675 0 0 0 -0.88925,0.88925 V 17.029954 c 0,5.01994 3.04065,8.117949 7.57294,8.117949 4.53229,0 7.64944,-3.098009 7.64944,-8.117949 V 5.6705343 a 0.88924675,0.88924675 0 0 0 -0.87968,-0.88925 z m -16.6949,27.7292107 h -0.1243 a 1.5012014,1.5012014 0 0 0 -1.31953,0.736259 v -0.50678 a 0.21992123,0.21992123 0 0 0 -0.21992,-0.229479 h -0.55458 a 0.22948303,0.22948303 0 0 0 -0.22948,0.229479 v 4.484491 a 0.21992123,0.21992123 0 0 0 0.22948,0.229468 h 0.59283 a 0.23904482,0.23904482 0 0 0 0.23904,-0.229468 v -2.285272 c 0,-0.956188 0.42072,-1.42471 1.2526,-1.42471 h 0.13386 a 0.22948303,0.22948303 0 0 0 0.23904,-0.219929 v -0.60239 a 0.23904482,0.23904482 0 0 0 -0.21036,-0.229479 z m 8.99765,0.803188 a 1.0231118,1.0231118 0 0 1 1.03268,0.879681 0.16255047,0.16255047 0 0 0 0.16255,0.143431 h 0.68844 a 0.14342689,0.14342689 0 0 0 0.14344,-0.162552 0.30597737,0.30597737 0 0 0 0,-0.124359 2.0175382,2.0175382 0 0 0 -2.00798,-1.644619 2.0940326,2.0940326 0 0 0 -2.1036,2.256568 v 0.640641 a 2.0844708,2.0844708 0 0 0 2.1036,2.247029 1.9792911,1.9792911 0 0 0 2.00798,-1.587259 1.2239095,1.2239095 0 0 0 0,-0.162549 0.15298869,0.15298869 0 0 0 -0.16256,-0.15299 h -0.68845 a 0.14342689,0.14342689 0 0 0 -0.15298,0.13394 0.9561793,0.9561793 0 0 1 -1.02312,0.870119 c -0.61195,0 -1.06136,-0.430278 -1.06136,-1.223909 v -0.87969 c 0.0287,-0.841441 0.47809,-1.281271 1.09005,-1.281271 z m -6.33947,0.49721 c 0,-0.41116 0.37291,-0.54502 0.80319,-0.54502 a 0.84143779,0.84143779 0 0 1 0.95618,0.611952 c 0,0.10518 0.0669,0.15299 0.18168,0.15299 h 0.62151 a 0.16255047,0.16255047 0 0 0 0.16255,-0.172111 0.42071891,0.42071891 0 0 0 0,-0.12436 1.7306845,1.7306845 0 0 0 -1.84542,-1.329079 c -0.95618,0 -1.91236,0.430268 -1.91236,1.45338 0,2.007979 2.81117,1.1761 2.81117,2.208779 0,0.45896 -0.34423,0.631079 -0.95618,0.631079 a 0.9561793,0.9561793 0 0 1 -1.01356,-0.659768 c 0,-0.0956 -0.0669,-0.162552 -0.17211,-0.162552 h -0.61196 a 0.18167406,0.18167406 0 0 0 -0.18167,0.162552 0.29641557,0.29641557 0 0 0 0,0.13394 1.8071789,1.8071789 0 0 0 1.91236,1.3769 c 1.02312,0 1.91236,-0.382471 1.91236,-1.501201 0.16255,-2.02711 -2.63905,-1.204791 -2.63905,-2.28528 z m 4.4558,-30.7315987 a 2.0653472,2.0653472 0 1 0 -2.06535,-2.0653502 1.9123586,1.9123586 0 0 0 2.09403,2.0175403 z m 6.02393,0 a 2.0653472,2.0653472 0 1 0 -2.06535,-2.0653502 1.9123586,1.9123586 0 0 0 2.09404,2.0175403 z m -15.18414,2.63905 a 0.88924675,0.88924675 0 0 0 -0.88924,-0.8892501 h -2.38089 a 0.88924675,0.88924675 0 0 0 -0.88925,0.8892501 V 18.636324 a 2.4286954,2.4286954 0 1 1 -4.84782,0 v -0.25817 a 0.88924675,0.88924675 0 0 0 -0.88925,-0.88923 h -2.29483 a 0.88924675,0.88924675 0 0 0 -0.88924,0.88923 v 0.2008 a 6.5402677,6.5402677 0 1 0 13.08052,0 z m -49.84562,9.8868997 7.05661,-18.3299598 a 21.70527,21.70527 0 0 0 -21.61922,11.6653902 0.47808962,0.47808962 0 0 1 0,0.12435 l -0.30598,0.79363 c -2.14184,5.5362896 1.1283,9.6382996 4.30281,10.8622096 a 8.1753329,8.1753329 0 0 0 10.56578,-5.11556 z m 45.66712,16.752261 a 2.1035944,2.1035944 0 0 0 -2.12271,2.256579 v 0.640641 a 2.1322813,2.1322813 0 1 0 4.26455,0 v -0.640641 a 2.1035944,2.1035944 0 0 0 -2.14184,-2.256579 z m 1.07092,3.021529 c 0,0.793631 -0.43984,1.223909 -1.07092,1.223909 -0.63108,0 -1.0518,-0.430278 -1.0518,-1.223909 v -0.87969 c 0,-0.79363 0.44941,-1.233471 1.0518,-1.233471 0.60239,0 1.07092,0.439841 1.07092,1.233471 z m -33.94436,-15.02158 c -4.20719,10.996061 -14.34269,15.1172 -23.62719,13.529941 a 21.676585,21.676585 0 1 0 30.37782,-30.9132808 z m 29.64156,10.125931 h -3.82472 a 0.22948303,0.22948303 0 0 0 -0.21992,0.239059 v 6.454201 a 0.21992123,0.21992123 0 0 0 0.21992,0.229478 h 0.6024 a 0.22948303,0.22948303 0 0 0 0.23904,-0.229478 v -2.53387 h 2.39045 a 0.22948303,0.22948303 0 0 0 0.22948,-0.229481 v -0.525899 a 0.23904482,0.23904482 0 0 0 -0.22948,-0.239051 h -2.39045 v -2.170531 h 2.98328 a 0.23904482,0.23904482 0 0 0 0.23904,-0.229478 v -0.525891 a 0.23904482,0.23904482 0 0 0 -0.23904,-0.239059 z m 81.70555,1.9793 h -0.6024 a 0.22948303,0.22948303 0 0 0 -0.22947,0.229479 v 2.68687 c 0,0.793631 -0.4016,1.223909 -1.01356,1.223909 -0.61195,0 -0.95617,-0.430278 -0.95617,-1.223909 v -2.68687 a 0.23904482,0.23904482 0 0 0 -0.23905,-0.229479 h -0.60239 a 0.22948303,0.22948303 0 0 0 -0.22949,0.229479 v 2.562561 c 0,1.386469 0.56415,2.247019 1.73069,2.247019 a 1.4438307,1.4438307 0 0 0 1.31953,-0.631079 v 0.30598 a 0.21992123,0.21992123 0 0 0 0.22948,0.229478 h 0.60239 a 0.22948303,0.22948303 0 0 0 0.22948,-0.229478 v -4.484481 a 0.22948303,0.22948303 0 0 0 -0.26773,-0.229479 z m -10.12594,-14.772981 h -2.95459 c -0.57371,0 -0.68845,0.45897 -0.74582,0.88925 a 2.9928413,2.9928413 0 0 1 -3.27014,2.66775 c -2.09403,0 -3.82472,-1.54902 -3.82472,-4.5036 v -3.82473 c 0,-2.9545896 1.69244,-4.5609696 3.82472,-4.5609696 a 3.1267064,3.1267064 0 0 1 3.2797,2.7920496 c 0.0861,0.57371 0.40159,0.77449 0.71714,0.77449 h 2.9259 a 0.60239299,0.60239299 0 0 0 0.63108,-0.71712 7.2191536,7.2191536 0 0 0 -7.55382,-6.7506298 c -4.58966,0 -7.94585,3.3848702 -7.94585,8.4048098 v 3.82471 c 0,5.01995 3.35619,8.40482 7.94585,8.40482 a 7.3721423,7.3721423 0 0 0 7.64944,-6.76975 0.6502019,0.6502019 0 0 0 -0.67889,-0.63108 z m 4.39843,14.772981 h -0.13387 a 1.4725161,1.4725161 0 0 0 -1.30997,0.736259 v -0.50678 a 0.22948303,0.22948303 0 0 0 -0.22948,-0.229479 h -0.55459 a 0.22948303,0.22948303 0 0 0 -0.22948,0.229479 v 4.484481 a 0.21992123,0.21992123 0 0 0 0.22948,0.229478 h 0.59283 a 0.23904482,0.23904482 0 0 0 0.23905,-0.229478 v -2.237452 c 0,-0.956188 0.42072,-1.42471 1.25259,-1.42471 h 0.14344 a 0.21992123,0.21992123 0 0 0 0.22948,-0.219929 v -0.60239 a 0.22948303,0.22948303 0 0 0 -0.22948,-0.229479 z m -4.48448,0 h -1.00399 v -1.051801 a 0.22948303,0.22948303 0 0 0 -0.22949,-0.239051 h -0.58327 a 0.22948303,0.22948303 0 0 0 -0.21992,0.239051 v 0.430279 c 0,0.50678 -0.20079,0.621522 -0.68845,0.621522 a 0.22948303,0.22948303 0 0 0 -0.22948,0.229479 v 0.44941 a 0.22948303,0.22948303 0 0 0 0.22948,0.229481 h 0.67889 v 2.447819 c 0,1.02312 0.34423,1.587249 1.52989,1.587249 h 0.51634 a 0.22948303,0.22948303 0 0 0 0.22948,-0.229478 v -0.506781 a 0.21992123,0.21992123 0 0 0 -0.22948,-0.219919 h -0.34423 c -0.59283,0 -0.65976,-0.210351 -0.65976,-0.774512 v -2.2757 h 1.00399 a 0.22948303,0.22948303 0 0 0 0.21992,-0.258159 v -0.478089 a 0.22948303,0.22948303 0 0 0 -0.21992,-0.2008 z m 17.80405,-0.10518 a 1.7306845,1.7306845 0 0 0 -1.53944,0.803188 1.568134,1.568134 0 0 0 -1.4534,-0.803188 1.4055835,1.4055835 0 0 0 -1.28128,0.669319 v -0.33466 a 0.23904482,0.23904482 0 0 0 -0.23904,-0.229479 h -0.64064 a 0.22948303,0.22948303 0 0 0 -0.22949,0.229479 v 4.484481 a 0.21992123,0.21992123 0 0 0 0.22949,0.229478 h 0.60239 a 0.23904482,0.23904482 0 0 0 0.23905,-0.229478 v -2.524311 c 0,-0.79363 0.15298,-1.386461 0.95617,-1.386461 0.8032,0 0.95617,0.487651 0.95617,1.386461 v 2.524311 a 0.22948303,0.22948303 0 0 0 0.2295,0.229478 h 0.61194 a 0.22948303,0.22948303 0 0 0 0.22949,-0.229478 v -2.524311 c 0,-0.851 0.20081,-1.386461 1.00399,-1.386461 0.80319,0 0.95618,0.535461 0.95618,1.386461 v 2.524311 a 0.21992123,0.21992123 0 0 0 0.22948,0.229478 h 0.67889 a 0.23904482,0.23904482 0 0 0 0.23904,-0.229478 v -2.419131 c -0.0382,-1.42471 -0.3251,-2.400009 -1.77849,-2.400009 z m -23.90448,0 a 1.5012014,1.5012014 0 0 0 -1.35778,0.678889 v -0.34423 a 0.22948303,0.22948303 0 0 0 -0.22948,-0.229479 h -0.61195 a 0.21992123,0.21992123 0 0 0 -0.21993,0.229479 v 4.484481 a 0.21992123,0.21992123 0 0 0 0.21993,0.229478 h 0.61195 a 0.22948303,0.22948303 0 0 0 0.22948,-0.229478 v -2.677301 c 0,-0.79363 0.43984,-1.233471 1.0518,-1.233471 0.61196,0 1.0518,0.439841 1.0518,1.233471 v 2.677301 a 0.21992123,0.21992123 0 0 0 0.22948,0.229478 h 0.56415 a 0.22948303,0.22948303 0 0 0 0.22948,-0.229478 v -2.562561 c 0.0191,-1.348211 -0.57371,-2.256579 -1.78805,-2.256579 z m 24.86066,-27.5762207 h -2.38089 a 0.88924675,0.88924675 0 0 0 -0.88925,0.88925 v 7.1713497 h -6.8558 V 5.6705343 a 0.88924675,0.88924675 0 0 0 -0.88924,-0.88925 h -2.38089 a 0.88924675,0.88924675 0 0 0 -0.88925,0.88925 V 23.971804 a 0.88924675,0.88924675 0 0 0 0.88925,0.889251 h 2.38089 a 0.88924675,0.88924675 0 0 0 0.88924,-0.889251 v -7.2287 h 6.79844 v 7.2287 a 0.88924675,0.88924675 0 0 0 0.88924,0.889251 h 2.38089 a 0.88924675,0.88924675 0 0 0 0.88925,-0.889251 V 5.6705343 a 0.88924675,0.88924675 0 0 0 -0.88925,-0.88925 z m -53.37394,27.5762207 a 1.5012014,1.5012014 0 0 0 -1.35778,0.678889 v -0.34423 a 0.22948303,0.22948303 0 0 0 -0.22948,-0.229479 h -0.6024 a 0.22948303,0.22948303 0 0 0 -0.22948,0.229479 v 4.484481 a 0.21992123,0.21992123 0 0 0 0.22948,0.229478 h 0.6024 a 0.22948303,0.22948303 0 0 0 0.22948,-0.229478 v -2.677301 c 0,-0.79363 0.43985,-1.233471 1.0518,-1.233471 0.61195,0 1.0518,0.439841 1.0518,1.233471 v 2.677301 a 0.21992123,0.21992123 0 0 0 0.22948,0.229478 h 0.6024 a 0.23904482,0.23904482 0 0 0 0.23904,-0.229478 v -2.562561 c 0,-1.348211 -0.59283,-2.256579 -1.81674,-2.256579 z m 6.36815,4.09244 h -1.28127 c -0.33467,0 -0.4781,-0.105171 -0.4781,-0.35379 a 0.34422453,0.34422453 0 0 1 0.39204,-0.353772 h 0.95618 a 1.6541902,1.6541902 0 0 0 1.91236,-1.682879 v -2.0271 a 0.22948303,0.22948303 0 0 0 -0.22948,-0.229489 h -0.53546 a 0.22948303,0.22948303 0 0 0 -0.22949,0.229489 v 0.640641 a 1.7880553,1.7880553 0 0 0 -1.01355,-0.31554 h -0.24861 a 1.6924373,1.6924373 0 0 0 -1.91235,1.701999 1.338651,1.338651 0 0 0 0.63107,1.204791 0.79362882,0.79362882 0 0 0 -0.66932,0.812749 0.78406702,0.78406702 0 0 0 0.4494,0.75537 1.2047859,1.2047859 0 0 0 -0.66932,1.137859 1.5394487,1.5394487 0 0 0 1.7498,1.51076 h 1.14742 a 1.5298869,1.5298869 0 1 0 0,-3.031088 z m -0.71713,-3.260571 h 0.26773 a 0.87012314,0.87012314 0 1 1 0,1.73069 h -0.26773 a 0.83187598,0.83187598 0 0 1 -0.95618,-0.86056 0.84143779,0.84143779 0 0 1 0.95618,-0.87013 z m 0.51634,5.46935 h -0.78407 c -0.66933,0 -0.90837,-0.267729 -0.90837,-0.688451 0,-0.420719 0.23904,-0.71714 0.90837,-0.71714 h 0.76494 c 0.67889,0 0.95619,0.277291 0.95619,0.71714 0,0.439841 -0.25818,0.688451 -0.95619,0.688451 z m 4.39842,-4.895641 c 0,-0.411149 0.37291,-0.545018 0.8032,-0.545018 a 0.85099959,0.85099959 0 0 1 0.95617,0.61196 c 0,0.10518 0.0669,0.15298 0.17212,0.15298 h 0.63108 a 0.16255047,0.16255047 0 0 0 0.16255,-0.172112 0.42071891,0.42071891 0 0 0 0,-0.124359 1.7306845,1.7306845 0 0 0 -1.84543,-1.329079 c -0.95618,0 -1.91236,0.430268 -1.91236,1.45338 0,2.007979 2.81117,1.1761 2.81117,2.208779 0,0.45897 -0.34423,0.631081 -0.90837,0.631081 a 0.9561793,0.9561793 0 0 1 -1.01355,-0.659762 c 0,-0.0956 -0.0669,-0.16256 -0.17212,-0.16256 h -0.62151 a 0.17211227,0.17211227 0 0 0 -0.17211,0.16256 0.29641557,0.29641557 0 0 0 0,0.133802 1.7976171,1.7976171 0 0 0 1.96017,1.3769 c 1.02311,0 1.91235,-0.382471 1.91235,-1.501201 0.0383,-1.9793 -2.76336,-1.15698 -2.76336,-2.23747 z m -2.97372,-9.791279 v -2.12271 a 0.88924675,0.88924675 0 0 0 -0.88924,-0.88925 h -7.64944 V 5.6609744 a 0.88924675,0.88924675 0 0 0 -0.88925,-0.88925 h -2.38089 a 0.88924675,0.88924675 0 0 0 -0.88924,0.88925 V 23.971804 a 0.88924675,0.88924675 0 0 0 0.88924,0.889251 h 10.90045 a 0.88924675,0.88924675 0 0 0 0.90837,-0.889251 z m 7.88849,0 V 5.6705343 a 0.88924675,0.88924675 0 0 0 -0.88925,-0.88925 h -2.38089 a 0.88924675,0.88924675 0 0 0 -0.88925,0.88925 V 23.971804 a 0.88924675,0.88924675 0 0 0 0.88925,0.889251 h 2.38089 a 0.88924675,0.88924675 0 0 0 0.88925,-0.889251 z m 2.86854,8.490881 h -3.26058 a 0.23904482,0.23904482 0 0 0 -0.23904,0.229479 v 0.44941 a 0.22948303,0.22948303 0 0 0 0.23904,0.229481 h 2.24703 l -2.30439,2.945019 a 0.53546042,0.53546042 0 0 0 -0.18168,0.439859 v 0.401582 a 0.22948303,0.22948303 0 0 0 0.23904,0.229489 h 3.26058 a 0.21992123,0.21992123 0 0 0 0.22948,-0.229489 v -0.449392 a 0.22948303,0.22948303 0 0 0 -0.22948,-0.239059 h -2.28527 l 2.37133,-2.935459 a 0.50677503,0.50677503 0 0 0 0.14342,-0.392031 v -0.478089 a 0.22948303,0.22948303 0 0 0 -0.19123,-0.2008 z m 3.82472,-0.10518 a 2.1131562,2.1131562 0 0 0 -2.14184,2.256579 v 0.640641 a 2.1131562,2.1131562 0 0 0 2.1514,2.247019 2.0271001,2.0271001 0 0 0 1.91236,-1.309971 0.61195474,0.61195474 0 0 0 0,-0.162539 0.16255047,0.16255047 0 0 0 -0.16255,-0.172109 h -0.64064 a 0.28685379,0.28685379 0 0 0 -0.22948,0.143428 0.9561793,0.9561793 0 0 1 -0.95619,0.60239 1.0900444,1.0900444 0 0 1 -1.08048,-1.176099 v -0.1338 h 2.93547 a 0.23904482,0.23904482 0 0 0 0.35379,-0.23904 v -0.45897 a 2.1035944,2.1035944 0 0 0 -2.09404,-2.23746 z m 1.07092,2.18009 h -2.14184 v -0.114771 a 1.0709208,1.0709208 0 1 1 2.14184,0 z" />
  </g>
</svg>
