<?xml version="1.0" encoding="UTF-8" standalone="no"?>
<svg
   xmlns:dc="http://purl.org/dc/elements/1.1/"
   xmlns:cc="http://creativecommons.org/ns#"
   xmlns:rdf="http://www.w3.org/1999/02/22-rdf-syntax-ns#"
   xmlns:svg="http://www.w3.org/2000/svg"
   xmlns="http://www.w3.org/2000/svg"
   xmlns:sodipodi="http://sodipodi.sourceforge.net/DTD/sodipodi-0.dtd"
   xmlns:inkscape="http://www.inkscape.org/namespaces/inkscape"
   version="1.1"
   x="0px"
   y="0px"
   viewBox="0 0 86.002838 60.653858"
   id="svg16"
   sodipodi:docname="noun_benefit.svg"
   width="86.002838"
   height="60.653858"
   inkscape:version="0.92.4 (5da689c313, 2019-01-14)">
  <metadata
     id="metadata22">
    <rdf:RDF>
      <cc:Work
         rdf:about="">
        <dc:format>image/svg+xml</dc:format>
        <dc:type
           rdf:resource="http://purl.org/dc/dcmitype/StillImage" />
        <dc:title></dc:title>
      </cc:Work>
    </rdf:RDF>
  </metadata>
  <defs
     id="defs20" />
  <sodipodi:namedview
     pagecolor="#ffffff"
     bordercolor="#666666"
     borderopacity="1"
     objecttolerance="10"
     gridtolerance="10"
     guidetolerance="10"
     inkscape:pageopacity="0"
     inkscape:pageshadow="2"
     inkscape:window-width="2560"
     inkscape:window-height="1376"
     id="namedview18"
     showgrid="false"
     fit-margin-top="0"
     fit-margin-left="0"
     fit-margin-right="0"
     fit-margin-bottom="0"
     inkscape:zoom="1.888"
     inkscape:cx="35.850997"
     inkscape:cy="16.767598"
     inkscape:window-x="0"
     inkscape:window-y="27"
     inkscape:window-maximized="1"
     inkscape:current-layer="svg16" />
  <g
     transform="translate(-6.9985794,-972.03524)"
     id="g10">
    <path
       d="m 12.417021,999.12691 c 0.8864,0.017 1.8354,0.2336 2.8078,0.7012 0,0 0,0 0,0 l 19.7847,9.50789 c 0.3646,-2.192 2.4014,-3.8746 4.7806,-3.8063 a 1.0001,1.0001 0 0 1 0.0019,0 l 10.7762,0.3294 c 2.805,-10e-4 4.9293,-0.6766 7.4332,-1.4007 2.5059,-0.7246 5.3669,-1.4793 9.39,-1.4793 3.586,0 8.9311,1.2892 12.77,2.724 v -3.764 a 1.0001,1.0001 0 0 1 1,-1 h 10.84 a 1.0001,1.0001 0 0 1 1,1 v 8.17 21.58 a 1.0001,1.0001 0 0 1 -1,1 h -10.84 a 1.0001,1.0001 0 0 1 -1,-1 v -3.3916 c -13.9148,-2.6934 -21.9978,1.4716 -33.86,1.4716 a 1.0001,1.0001 0 0 1 -0.0016,0 c -2.0286,0 -4.614,-1.1135 -7.7837,-2.7582 -3.1698,-1.6447 -6.8322,-3.873 -10.5419,-6.2681 -7.4187,-4.7897 -15.0308,-10.2543 -19.0322005,-12.965 0,0 -10e-4,-10e-4 -0.0013,-10e-4 -1.1347,-0.7664 -1.7768,-1.9207 -1.9122,-3.0909 -0.1354,-1.1707 0.1945,-2.3498 0.8666,-3.3263 0.9241,-1.3426 2.5712005,-2.27059 4.5216005,-2.23309 z m -0.2463,1.94659 c -1.2119,0.01 -2.0826,0.6281 -2.6278005,1.4203 -0.4154,0.6035 -0.6014,1.3232 -0.5275,1.9625 0.074,0.6393 0.3665,1.2057 1.0460005,1.6643 a 1.0001,1.0001 0 0 1 0.0012,10e-4 c 4.0589,2.7496 11.6359,8.1893 18.9966,12.9416 3.6803,2.3761 7.3053,4.5784 10.3781,6.1728 3.0714,1.5937 5.6822,2.5308 6.8644,2.5334 0,0 10e-4,0 0.0015,0 11.2792,0 19.6684,-4.1535 33.8585,-1.5068 v -2.9132 a 1.0001,1.0001 0 1 1 2,0 v 7.34 h 3 v -27.75 h -3 v 7.33 a 1.0001,1.0001 0 1 1 -2,0 v -2.424 c -3.6116,-1.4375 -9.4911,-2.866 -12.77,-2.866 -3.777,0 -6.3607,0.6853 -8.8347,1.4007 -2.4741,0.7154 -4.8637,1.4793 -7.9953,1.4793 a 1.0001,1.0001 0 0 1 -0.0303,0 l -10.7982,-0.33 c -10e-4,0 -0.0012,0 -0.0018,0 -1.5509,-0.043 -2.7797,1.175 -2.7797,2.5104 0,1.3489 1.2117,2.4479 2.8484,2.5106 a 1.0001,1.0001 0 0 1 0.0044,0 l 20.54,0.88 a 1.0001,1.0001 0 1 1 -0.0857,1.9981 l -20.5353,-0.8797 h -0.0047 c -1.9506,-0.076 -3.7141,-1.2023 -4.429,-2.8653 a 1.0001,1.0001 0 0 1 -0.1013,-0.043 l -20.83,-10.01 c -0.8243,-0.3965 -1.5527,-0.561 -2.1875,-0.5572 z m 78.831,1.8659 h -3.84 v 27.75 h 3.84 v -20.58 z"
       style="color:#000000;text-indent:0;text-transform:none;direction:ltr;baseline-shift:baseline;display:inline;overflow:visible;visibility:visible;fill:#000000;fill-opacity:1;fill-rule:evenodd;stroke:none;enable-background:accumulate"
       marker="none"
       visibility="visible"
       display="inline"
       overflow="visible"
       id="path2"
       inkscape:connector-curvature="0" />
    <path
       d="m 44.677021,984.53536 a 1.0001,1.0001 0 0 1 0.9847,1.0141 v 5.76995 h 5.77 a 1.0001,1.0001 0 1 1 0,2 h -5.77 v 5.77 a 1.0001,1.0001 0 1 1 -2,0 v -5.77 h -5.77 a 1.0001,1.0001 0 1 1 0,-2 h 5.77 v -5.76995 a 1.0001,1.0001 0 0 1 1.0153,-1.0141 z"
       style="color:#000000;text-indent:0;text-transform:none;direction:ltr;baseline-shift:baseline;display:inline;overflow:visible;visibility:visible;fill:#000000;fill-opacity:1;fill-rule:evenodd;stroke:none;enable-background:accumulate"
       marker="none"
       visibility="visible"
       display="inline"
       overflow="visible"
       id="path4"
       inkscape:connector-curvature="0" />
    <path
       d="m 36.497021,972.03536 a 1.0001,1.0001 0 0 1 0.9847,1.0141 v 2.91 h 2.91 a 1.0001,1.0001 0 1 1 0,2 h -2.91 v 2.9 a 1.0001,1.0001 0 1 1 -2,0 v -2.9 h -2.9 a 1.0001,1.0001 0 1 1 0,-2 h 2.9 v -2.91 a 1.0001,1.0001 0 0 1 1.0153,-1.0141 z"
       style="color:#000000;text-indent:0;text-transform:none;direction:ltr;baseline-shift:baseline;display:inline;overflow:visible;visibility:visible;fill:#000000;fill-opacity:1;fill-rule:evenodd;stroke:none;enable-background:accumulate"
       marker="none"
       visibility="visible"
       display="inline"
       overflow="visible"
       id="path6"
       inkscape:connector-curvature="0" />
    <path
       d="m 52.857021,972.03536 a 1.0001,1.0001 0 0 1 0.9847,1.0141 v 2.91 h 2.91 a 1.0001,1.0001 0 1 1 0,2 h -2.91 v 2.9 a 1.0001,1.0001 0 1 1 -2,0 v -2.9 h -2.9 a 1.0001,1.0001 0 1 1 0,-2 h 2.9 v -2.91 a 1.0001,1.0001 0 0 1 1.0153,-1.0141 z"
       style="color:#000000;text-indent:0;text-transform:none;direction:ltr;baseline-shift:baseline;display:inline;overflow:visible;visibility:visible;fill:#000000;fill-opacity:1;fill-rule:evenodd;stroke:none;enable-background:accumulate"
       marker="none"
       visibility="visible"
       display="inline"
       overflow="visible"
       id="path8"
       inkscape:connector-curvature="0" />
  </g>
</svg>
