<?xml version="1.0" encoding="UTF-8" standalone="no"?>
<svg
   xmlns:dc="http://purl.org/dc/elements/1.1/"
   xmlns:cc="http://creativecommons.org/ns#"
   xmlns:rdf="http://www.w3.org/1999/02/22-rdf-syntax-ns#"
   xmlns:svg="http://www.w3.org/2000/svg"
   xmlns="http://www.w3.org/2000/svg"
   xmlns:sodipodi="http://sodipodi.sourceforge.net/DTD/sodipodi-0.dtd"
   xmlns:inkscape="http://www.inkscape.org/namespaces/inkscape"
   version="1.1"
   x="0px"
   y="0px"
   viewBox="0 0 128 160"
   enable-background="new 0 0 128 128"
   xml:space="preserve"
   id="svg82"
   sodipodi:docname="noun_collaboration.svg"
   inkscape:version="0.92.4 (5da689c313, 2019-01-14)"><metadata
     id="metadata88"><rdf:RDF><cc:Work
         rdf:about=""><dc:format>image/svg+xml</dc:format><dc:type
           rdf:resource="http://purl.org/dc/dcmitype/StillImage" /><dc:title></dc:title></cc:Work></rdf:RDF></metadata><defs
     id="defs86" /><sodipodi:namedview
     pagecolor="#ffffff"
     bordercolor="#666666"
     borderopacity="1"
     objecttolerance="10"
     gridtolerance="10"
     guidetolerance="10"
     inkscape:pageopacity="0"
     inkscape:pageshadow="2"
     inkscape:window-width="640"
     inkscape:window-height="480"
     id="namedview84"
     showgrid="false"
     inkscape:zoom="1.475"
     inkscape:cx="52.135593"
     inkscape:cy="80"
     inkscape:window-x="0"
     inkscape:window-y="27"
     inkscape:window-maximized="0"
     inkscape:current-layer="svg82" /><g
     id="g76"><path
       d="M7.6,104h53.8c0.2,0,0.5-0.1,0.6-0.3c0.1-0.2,0.2-0.4,0.1-0.7l-2.1-7c-0.1-0.3-0.2-0.6-0.3-0.9c-0.6-1.5-1.5-2.8-2.6-3.9   c-0.8-0.8-1.8-1.5-2.9-2c-1.4-0.7-2.9-1.1-4.6-1.3c-0.9-0.1-1.8-0.1-2.7,0c-1.3,0.1-2.7,0.2-4,0.2c-0.5-1-1.5-3.9,0.1-8   c2-1.8,3.6-4.3,4.6-7.2c1.6-0.1,2.8-2.4,2.8-5.5c0-2.5-0.8-4.5-1.9-5.2c0.2-1.6,0.4-3.3,0.5-5c0.5-7.5-1.5-8.4-5.3-9.6   c-0.3-0.1-0.6-0.2-0.9-0.3c-3-1-6.1-1.2-8.2-1.2c-3,0-5.8,0.4-8.2,1.2c-0.3,0.1-0.6,0.2-0.9,0.3c-3.8,1.2-5.8,2.1-5.3,9.6   c0.1,1.7,0.3,3.4,0.5,5c-1.2,0.7-1.9,2.7-1.9,5.2c0,3.1,1.2,5.4,2.8,5.5c0.8,2.4,2.1,4.6,3.6,6.2c0,0,0,0.1,0,0.1   c2,5.1,0,8.5-0.1,8.7c0,0,0,0.1,0,0.1c-1,0-1.9-0.1-2.9-0.2c-6.3-0.5-11.4,2.7-13.1,8.1c-0.7,2.2-1.4,4.5-2.1,7   c-0.1,0.2,0,0.5,0.1,0.7C7.2,103.9,7.4,104,7.6,104z M41.8,89.3c-1.3,2.4-2.1,3.4-3.2,4.7c-0.2,0.3-0.4,0.5-0.7,0.8l0.6,0.5   l-0.6-0.4c-0.9,1-2.2,1.6-3.5,1.6c0,0,0,0,0,0c-1.4,0-2.7-0.6-3.5-1.7c-1.4-1.7-2.7-3.8-3.9-6.2c0-0.1-0.1-0.2-0.2-0.2   c0.5-1,1.4-3.6,0.7-7.3c2.1,1.6,4.6,2.5,7.3,2.5c2.3,0,4.5-0.7,6.4-1.9C40,86,41.5,88.9,41.8,89.3z M25.9,49.1   c0.3-0.1,0.6-0.2,0.9-0.3c2.3-0.7,4.9-1.1,7.8-1.1c2.8,0,5.5,0.4,7.8,1.1c0.3,0.1,0.6,0.2,0.9,0.3c3.2,1,4.7,1.4,4.3,8.1   c0,0.4-0.1,0.9-0.1,1.3c-0.6-1.4-1.5-2.6-2.8-2.8c-2.5-0.3-9.1-0.2-9.4-0.2c-0.1,0-2.7,0.2-5.7-2.7c-0.2-0.1-0.4-0.2-0.6-0.2   c-0.2,0-0.4,0.1-0.5,0.3c-0.4,0.6-0.9,1.8-0.5,2.9c-1.7-0.2-3.9-0.3-4.8,0.8c-0.5,0.5-0.9,1.3-1.2,2.2c-0.1-0.5-0.1-1.1-0.1-1.6   C21.2,50.6,22.7,50.1,25.9,49.1z M22.4,71.5c-0.1,0-0.2-0.1-0.3-0.1c-0.1,0-0.2,0-0.3,0.1c-0.1,0-0.1,0-0.2,0c-0.5,0-1.4-1.4-1.4-4   c0-2.3,0.8-3.8,1.3-4c0.3-0.1,0.5-0.3,0.6-0.6l0-0.3c0-0.1,0-0.1,0-0.2c0.3-1.3,1.1-4,1.9-4.9c0.6-0.7,3.5-0.4,5.2,0   c0.3,0.1,0.7-0.1,0.9-0.4c0.2-0.3,0.1-0.7-0.2-0.9c-0.8-0.6-0.9-1.3-0.8-1.8c3.2,2.6,5.9,2.4,6,2.4c0.1,0,6.8-0.1,9.2,0.2   c1.3,0.1,2.3,3.4,2.6,5.6c0,0,0,0.1,0,0.1l0,0.1c0.1,0.3,0.3,0.5,0.6,0.6c0.6,0.1,1.3,1.7,1.3,4c0,2.6-0.9,4-1.4,4c0,0-0.1,0-0.2,0   c-0.2-0.1-0.4-0.1-0.6,0c-0.2,0.1-0.3,0.3-0.4,0.5c-1.9,6.2-6.6,10.2-11.8,10.2c-5.2,0-9.9-4-11.8-10.2   C22.7,71.7,22.6,71.6,22.4,71.5z M10.5,96.6c1.5-4.8,5.9-7.5,11.6-7.1c1.2,0.1,2.4,0.1,3.6,0.2c1.2,2.4,2.5,4.4,3.9,6.1   c1.2,1.4,2.9,2.2,4.7,2.2c0,0,0,0,0,0c1.8,0,3.5-0.8,4.7-2.1l0.1-0.1c0.2-0.3,0.5-0.5,0.7-0.8c1.2-1.4,2.2-2.5,3.6-5.3   c1.2-0.1,2.5-0.1,3.7-0.2c0.8-0.1,1.7-0.1,2.5,0c1.5,0.1,2.9,0.5,4.1,1.1c0.9,0.5,1.8,1,2.5,1.7c1,0.9,1.7,2.1,2.3,3.4   c0.1,0.3,0.2,0.5,0.3,0.8l1.8,6H8.7C9.3,100.4,9.9,98.5,10.5,96.6z"
       id="path2" /><path
       d="M88.8,112.1l-8.1-3.6c-0.1-0.1-0.3-0.1-0.4,0c0,0-0.1,0-0.1,0h-69c-2.3,0-4.3,1.9-4.3,4.3v0.2c0,2.3,1.9,4.3,4.3,4.3h6.2   c0,0,0,0,0,0c0,0,0,0,0,0h62.7c0,0,0.1,0,0.1,0c0,0,0.1,0,0.1,0c0.1,0,0.2,0,0.3-0.1l8.1-3.6c0.3-0.1,0.4-0.4,0.4-0.7   C89.2,112.5,89,112.2,88.8,112.1z M8.4,112.9v-0.2c0-1.5,1.2-2.7,2.7-2.7h5.5v5.7h-5.5C9.6,115.6,8.4,114.4,8.4,112.9z M79.4,115.6   H18.1v-5.7h61.2V115.6z M80.9,115.3v-5.1l5.7,2.6L80.9,115.3z"
       id="path4" /><path
       d="M37,113.5h4c0.4,0,0.8-0.3,0.8-0.8c0-0.4-0.3-0.8-0.8-0.8h-4c-0.4,0-0.8,0.3-0.8,0.8C36.2,113.2,36.5,113.5,37,113.5z"
       id="path6" /><path
       d="M47,113.5h4c0.4,0,0.8-0.3,0.8-0.8c0-0.4-0.3-0.8-0.8-0.8h-4c-0.4,0-0.8,0.3-0.8,0.8C46.2,113.2,46.6,113.5,47,113.5z"
       id="path8" /><path
       d="M67.1,113.5h4c0.4,0,0.8-0.3,0.8-0.8c0-0.4-0.3-0.8-0.8-0.8h-4c-0.4,0-0.8,0.3-0.8,0.8C66.3,113.2,66.7,113.5,67.1,113.5z"
       id="path10" /><path
       d="M57,113.5h4c0.4,0,0.8-0.3,0.8-0.8c0-0.4-0.3-0.8-0.8-0.8h-4c-0.4,0-0.8,0.3-0.8,0.8C56.3,113.2,56.6,113.5,57,113.5z"
       id="path12" /><path
       d="M26.9,113.5h4c0.4,0,0.8-0.3,0.8-0.8c0-0.4-0.3-0.8-0.8-0.8h-4c-0.4,0-0.8,0.3-0.8,0.8C26.2,113.2,26.5,113.5,26.9,113.5z"
       id="path14" /><path
       d="M16.5,19.6c0-0.4-0.3-0.8-0.8-0.8c-0.4,0-0.8,0.3-0.8,0.8v9.4c0,0.4,0.3,0.8,0.8,0.8c0.4,0,0.8-0.3,0.8-0.8V19.6z"
       id="path16" /><path
       d="M15.7,32.6c-0.4,0-0.8,0.3-0.8,0.8v3.4c0,0.4,0.3,0.8,0.8,0.8c0.4,0,0.8-0.3,0.8-0.8v-3.4C16.5,32.9,16.1,32.6,15.7,32.6z"
       id="path18" /><path
       d="M118.5,80.9c0.4,0,0.8-0.3,0.8-0.8v-9.4c0-0.4-0.3-0.8-0.8-0.8c-0.4,0-0.8,0.3-0.8,0.8v9.4   C117.8,80.5,118.1,80.9,118.5,80.9z"
       id="path20" /><path
       d="M117.8,87.9c0,0.4,0.3,0.8,0.8,0.8c0.4,0,0.8-0.3,0.8-0.8v-3.4c0-0.4-0.3-0.8-0.8-0.8c-0.4,0-0.8,0.3-0.8,0.8V87.9z"
       id="path22" /><path
       d="M120.5,8.5c2,0,3.6-1.6,3.6-3.6c0-2-1.6-3.6-3.6-3.6s-3.6,1.6-3.6,3.6C116.9,6.8,118.5,8.5,120.5,8.5z M120.5,2.7   c1.2,0,2.1,0.9,2.1,2.1c0,1.2-0.9,2.1-2.1,2.1c-1.2,0-2.1-0.9-2.1-2.1C118.4,3.7,119.3,2.7,120.5,2.7z"
       id="path24" /><path
       d="M85.3,79.3c0-2-1.6-3.6-3.6-3.6c-2,0-3.6,1.6-3.6,3.6c0,2,1.6,3.6,3.6,3.6C83.7,82.9,85.3,81.3,85.3,79.3z M79.6,79.3   c0-1.2,0.9-2.1,2.1-2.1c1.2,0,2.1,0.9,2.1,2.1c0,1.2-0.9,2.1-2.1,2.1C80.6,81.4,79.6,80.5,79.6,79.3z"
       id="path26" /><path
       d="M29.1,120.3c-2,0-3.6,1.6-3.6,3.6c0,2,1.6,3.6,3.6,3.6c2,0,3.6-1.6,3.6-3.6C32.7,121.9,31.1,120.3,29.1,120.3z M29.1,126   c-1.2,0-2.1-0.9-2.1-2.1c0-1.2,0.9-2.1,2.1-2.1c1.2,0,2.1,0.9,2.1,2.1C31.2,125,30.3,126,29.1,126z"
       id="path28" /><path
       d="M16.7,7.7c0,0.4,0.3,0.8,0.8,0.8h11.7c0.4,0,0.8-0.3,0.8-0.8c0-0.4-0.3-0.8-0.8-0.8H17.4C17,6.9,16.7,7.3,16.7,7.7z"
       id="path30" /><path
       d="M9.8,8.5h3.8c0.4,0,0.8-0.3,0.8-0.8c0-0.4-0.3-0.8-0.8-0.8H9.8c-0.4,0-0.8,0.3-0.8,0.8C9.1,8.1,9.4,8.5,9.8,8.5z"
       id="path32" /><path
       d="M9.8,4.4H18c0.4,0,0.8-0.3,0.8-0.8S18.4,2.9,18,2.9H9.8c-0.4,0-0.8,0.3-0.8,0.8S9.4,4.4,9.8,4.4z"
       id="path34" /><path
       d="M21.5,4.4h2.6c0.4,0,0.8-0.3,0.8-0.8s-0.3-0.8-0.8-0.8h-2.6c-0.4,0-0.8,0.3-0.8,0.8S21,4.4,21.5,4.4z"
       id="path36" /><path
       d="M99.5,103.3c0,0.4,0.3,0.8,0.8,0.8h11.7c0.4,0,0.8-0.3,0.8-0.8c0-0.4-0.3-0.8-0.8-0.8h-11.7   C99.8,102.5,99.5,102.9,99.5,103.3z"
       id="path38" /><path
       d="M119.5,102.5h-3.8c-0.4,0-0.8,0.3-0.8,0.8c0,0.4,0.3,0.8,0.8,0.8h3.8c0.4,0,0.8-0.3,0.8-0.8   C120.3,102.9,119.9,102.5,119.5,102.5z"
       id="path40" /><path
       d="M119.5,106.5h-8.1c-0.4,0-0.8,0.3-0.8,0.8c0,0.4,0.3,0.8,0.8,0.8h8.1c0.4,0,0.8-0.3,0.8-0.8   C120.3,106.9,119.9,106.5,119.5,106.5z"
       id="path42" /><path
       d="M107.9,106.5h-2.6c-0.4,0-0.8,0.3-0.8,0.8c0,0.4,0.3,0.8,0.8,0.8h2.6c0.4,0,0.8-0.3,0.8-0.8   C108.6,106.9,108.3,106.5,107.9,106.5z"
       id="path44" /><path
       d="M57,32.7l-1.5-1.5c-0.3-0.3-0.8-0.3-1.1,0c-0.3,0.3-0.3,0.8,0,1.1l1.5,1.5c0.1,0.1,0.3,0.2,0.5,0.2c0.2,0,0.4-0.1,0.5-0.2   C57.3,33.5,57.3,33,57,32.7z"
       id="path46" /><path
       d="M60.5,36.1c-0.3-0.3-0.8-0.3-1.1,0c-0.3,0.3-0.3,0.8,0,1.1l1.5,1.5c0.1,0.1,0.3,0.2,0.5,0.2s0.4-0.1,0.5-0.2   c0.3-0.3,0.3-0.8,0-1.1L60.5,36.1z"
       id="path48" /><path
       d="M56,36.1l-1.5,1.5c-0.3,0.3-0.3,0.8,0,1.1c0.1,0.1,0.3,0.2,0.5,0.2c0.2,0,0.4-0.1,0.5-0.2l1.5-1.5c0.3-0.3,0.3-0.8,0-1.1   C56.7,35.9,56.3,35.9,56,36.1z"
       id="path50" /><path
       d="M62,31.2c-0.3-0.3-0.8-0.3-1.1,0l-1.5,1.5c-0.3,0.3-0.3,0.8,0,1.1c0.1,0.1,0.3,0.2,0.5,0.2c0.2,0,0.4-0.1,0.5-0.2l1.5-1.5   C62.3,31.9,62.3,31.5,62,31.2z"
       id="path52" /><path
       d="M4.9,73.1c-0.3-0.3-0.8-0.3-1.1,0c-0.3,0.3-0.3,0.8,0,1.1l1.5,1.5c0.1,0.1,0.3,0.2,0.5,0.2s0.4-0.1,0.5-0.2   c0.3-0.3,0.3-0.8,0-1.1L4.9,73.1z"
       id="path54" /><path
       d="M10.4,80.6c0.1,0.1,0.3,0.2,0.5,0.2c0.2,0,0.4-0.1,0.5-0.2c0.3-0.3,0.3-0.8,0-1.1L9.9,78c-0.3-0.3-0.8-0.3-1.1,0   s-0.3,0.8,0,1.1L10.4,80.6z"
       id="path56" /><path
       d="M5.4,78l-1.5,1.5c-0.3,0.3-0.3,0.8,0,1.1c0.1,0.1,0.3,0.2,0.5,0.2c0.2,0,0.4-0.1,0.5-0.2l1.5-1.5c0.3-0.3,0.3-0.8,0-1.1   C6.2,77.7,5.7,77.7,5.4,78z"
       id="path58" /><path
       d="M9.4,75.9c0.2,0,0.4-0.1,0.5-0.2l1.5-1.5c0.3-0.3,0.3-0.8,0-1.1c-0.3-0.3-0.8-0.3-1.1,0l-1.5,1.5c-0.3,0.3-0.3,0.8,0,1.1   C9,75.8,9.2,75.9,9.4,75.9z"
       id="path60" /><path
       d="M99.9,118.4c-0.3-0.3-0.8-0.3-1.1,0c-0.3,0.3-0.3,0.8,0,1.1l1.5,1.5c0.1,0.1,0.3,0.2,0.5,0.2c0.2,0,0.4-0.1,0.5-0.2   c0.3-0.3,0.3-0.8,0-1.1L99.9,118.4z"
       id="path62" /><path
       d="M104.9,123.4c-0.3-0.3-0.8-0.3-1.1,0c-0.3,0.3-0.3,0.8,0,1.1l1.5,1.5c0.1,0.1,0.3,0.2,0.5,0.2s0.4-0.1,0.5-0.2   c0.3-0.3,0.3-0.8,0-1.1L104.9,123.4z"
       id="path64" /><path
       d="M100.4,123.4l-1.5,1.5c-0.3,0.3-0.3,0.8,0,1.1c0.1,0.1,0.3,0.2,0.5,0.2c0.2,0,0.4-0.1,0.5-0.2l1.5-1.5   c0.3-0.3,0.3-0.8,0-1.1C101.1,123.1,100.7,123.1,100.4,123.4z"
       id="path66" /><path
       d="M105.3,118.4l-1.5,1.5c-0.3,0.3-0.3,0.8,0,1.1c0.1,0.1,0.3,0.2,0.5,0.2c0.2,0,0.4-0.1,0.5-0.2l1.5-1.5   c0.3-0.3,0.3-0.8,0-1.1C106.1,118.1,105.6,118.1,105.3,118.4z"
       id="path68" /><path
       d="M124.3,57.6l-1.3-4.2c-0.3-0.9-0.6-1.9-0.9-2.8c-0.1-0.3-0.2-0.6-0.3-0.9c-0.6-1.5-1.5-2.8-2.6-3.9c-0.8-0.8-1.8-1.5-2.9-2   c-1.4-0.7-2.9-1.1-4.6-1.3c-0.9-0.1-1.8-0.1-2.7,0c-1.3,0.1-2.7,0.2-4,0.2c-0.5-1-1.5-3.9,0.1-8.2c0,0,0,0,0,0c4.7,1,8.2-0.9,8.3-1   c0.2-0.1,0.3-0.3,0.4-0.4l1.1-3.7c0,0,0-0.1,0-0.1c0.1-0.8,2.7-20.7-10-26.7c-12.7-6-21,3.1-21,3.2c-9.8,10-4.5,26.6-4.2,27.3   c0,0.1,0.1,0.3,0.3,0.4c1.6,1.2,3.9,1.5,6,1.5c0.8,0,1.5,0,2.1-0.1c1.4,4,0.4,6.9,0,7.9c-1.3-0.1-2.6-0.1-3.8-0.2   c-6.3-0.5-11.4,2.7-13.1,8.1c-0.7,2.2-1.4,4.5-2.1,7c-0.1,0.2,0,0.5,0.1,0.7c0.1,0.2,0.4,0.3,0.6,0.3h53.8c0.2,0,0.5-0.1,0.6-0.3   C124.4,58.1,124.4,57.8,124.3,57.6z M81.1,32.3c-0.6-2-4.6-16.8,4-25.6c0.3-0.3,7.6-8.4,19.3-2.9c11.4,5.4,9.3,23.9,9.2,25.1   l-1,3.4c-1,0.4-4.6,1.8-8.8,0.2c4.2-4.1,5-9.8,5-10.1c0-0.3-0.1-0.6-0.3-0.7c-6.1-3.8-7.4-13.2-7.4-13.3c0-0.3-0.3-0.6-0.6-0.6   c-0.3-0.1-0.6,0-0.8,0.3c-5.3,7.6-11.4,6.2-12.1,6c-1.2-0.7-2.3-0.8-3.2-0.3c-1.1,0.5-1.3,1.7-1.3,1.9c-0.3,5,0.9,6.6,1.5,7.2   c1.3,4.6,3.1,8,5.4,10.2C88.5,33.3,83.7,34,81.1,32.3z M85.9,22.2c-0.1-0.2-0.2-0.4-0.4-0.5c0,0-1.4-0.9-1-5.9c0,0,0.1-0.5,0.5-0.7   c0.1-0.1,0.3-0.1,0.4-0.1c0.4,0,0.9,0.2,1.4,0.5c0,0,0.1,0,0.1,0.1c0.3,0.1,6.9,2.1,12.8-5.2c0.7,3,2.6,9.1,7.4,12.4   c-0.4,1.9-2.2,9.3-9.2,11.6c0,0-2.2,0.7-4.8-0.8C90,31.8,87.5,27.9,85.9,22.2z M90.7,34.4c0.2,0,0.4-0.2,0.5-0.3   c0.4,0.3,0.8,0.5,1.2,0.7c1.6,0.9,3.1,1.1,4.2,1.1c1.1,0,1.7-0.2,1.8-0.2c1.6-0.5,2.9-1.3,4.1-2.1c0.1,0.1,0.2,0.2,0.3,0.2   c0.3,0.1,0.7,0.3,1,0.4c-2.1,5.5-0.1,9.2,0.2,9.7c-1.3,2.4-2.1,3.4-3.2,4.7c-0.2,0.3-0.4,0.5-0.7,0.8l0.6,0.5l-0.6-0.4   c-0.9,1-2.2,1.6-3.5,1.6c0,0,0,0,0,0c-1.4,0-2.7-0.6-3.5-1.7c-1.3-1.5-2.5-3.4-3.6-5.5c0.3-0.5,2.1-4.1,0.4-9.2   C90.3,34.5,90.7,34.5,90.7,34.4z M70.8,57.1c0.6-2.1,1.2-4.1,1.8-6c1.5-4.8,5.9-7.5,11.6-7.1c1.2,0.1,2.4,0.1,3.6,0.2   c1.2,2.4,2.5,4.4,3.9,6.1c1.2,1.4,2.9,2.2,4.7,2.2c0,0,0,0,0,0c1.8,0,3.5-0.8,4.7-2.1l0.1-0.1c0.2-0.3,0.5-0.5,0.7-0.8   c1.2-1.4,2.2-2.5,3.6-5.3c1.2-0.1,2.5-0.1,3.7-0.2c0.9-0.1,1.7-0.1,2.5,0c1.5,0.1,2.9,0.5,4.1,1.1c0.9,0.5,1.8,1,2.5,1.7   c1,0.9,1.7,2.1,2.3,3.4c0.1,0.3,0.2,0.5,0.3,0.8c0.3,0.9,0.6,1.8,0.9,2.8l1,3.2H70.8z"
       id="path70" /><path
       d="M110.8,71.9c0.1,0.2,0.4,0.3,0.6,0.3c0.2,0,0.3-0.1,0.5-0.2c0.3-0.3,0.4-0.7,0.1-1.1l-4.4-5.4c-0.3-0.4-0.9-0.4-1.2,0   l-4.4,5.4c-0.3,0.3-0.2,0.8,0.1,1.1c0.3,0.3,0.8,0.2,1.1-0.1l3-3.7c-0.8,16.7-14.6,30.1-31.5,30.1c-0.4,0-0.8,0.3-0.8,0.8   c0,0.4,0.3,0.8,0.8,0.8c17.8,0,32.3-14.1,33-31.7L110.8,71.9z"
       id="path72" /><path
       d="M36.9,41c0.1,0.2,0.4,0.3,0.6,0.3c0.2,0,0.4-0.1,0.6-0.3l4.4-5.4c0.3-0.3,0.2-0.8-0.1-1.1c-0.3-0.3-0.8-0.2-1.1,0.1l-3,3.7   C39,21.7,52.9,8.3,69.8,8.3c0.4,0,0.8-0.3,0.8-0.8c0-0.4-0.3-0.8-0.8-0.8c-17.8,0-32.3,14.1-33,31.7l-3.1-3.8   c-0.3-0.3-0.7-0.4-1.1-0.1c-0.3,0.3-0.4,0.7-0.1,1.1L36.9,41z"
       id="path74" /></g></svg>