<?xml version="1.0" encoding="UTF-8" standalone="no"?>
<svg
   xmlns:dc="http://purl.org/dc/elements/1.1/"
   xmlns:cc="http://creativecommons.org/ns#"
   xmlns:rdf="http://www.w3.org/1999/02/22-rdf-syntax-ns#"
   xmlns:svg="http://www.w3.org/2000/svg"
   xmlns="http://www.w3.org/2000/svg"
   xmlns:sodipodi="http://sodipodi.sourceforge.net/DTD/sodipodi-0.dtd"
   xmlns:inkscape="http://www.inkscape.org/namespaces/inkscape"
   sodipodi:docname="peoples.svg"
   inkscape:version="1.0rc1 (09960d6f05, 2020-04-09)"
   id="svg1385"
   version="1.1"
   viewBox="0 0 28.889299 17.961744"
   height="17.961744mm"
   width="28.889299mm">
  <defs
     id="defs1379">
    <filter
       id="filter13089"
       inkscape:label="Roughen"
       style="color-interpolation-filters:sRGB;stroke-linecap:butt;stroke-linejoin:round;stroke-miterlimit:100000">
      <feTurbulence
         id="feTurbulence13091"
         result="turbulence"
         baseFrequency="0.013 0.013"
         seed="1"
         numOctaves="5"
         type="fractalNoise"
         style="stroke-linecap:butt;stroke-linejoin:round;stroke-miterlimit:100000" />
      <feDisplacementMap
         id="feDisplacementMap13093"
         xChannelSelector="R"
         yChannelSelector="G"
         scale="6.6"
         in2="turbulence"
         in="SourceGraphic"
         style="stroke-linecap:butt;stroke-linejoin:round;stroke-miterlimit:100000" />
    </filter>
    <filter
       id="filter13077"
       inkscape:label="Roughen"
       style="color-interpolation-filters:sRGB;stroke-linecap:butt;stroke-linejoin:round;stroke-miterlimit:100000">
      <feTurbulence
         id="feTurbulence13079"
         result="turbulence"
         baseFrequency="0.013 0.013"
         seed="1"
         numOctaves="5"
         type="fractalNoise"
         style="stroke-linecap:butt;stroke-linejoin:round;stroke-miterlimit:100000" />
      <feDisplacementMap
         id="feDisplacementMap13081"
         xChannelSelector="R"
         yChannelSelector="G"
         scale="6.6"
         in2="turbulence"
         in="SourceGraphic"
         style="stroke-linecap:butt;stroke-linejoin:round;stroke-miterlimit:100000" />
    </filter>
    <filter
       id="filter13083"
       inkscape:label="Roughen"
       style="color-interpolation-filters:sRGB;stroke-linecap:butt;stroke-linejoin:round;stroke-miterlimit:100000">
      <feTurbulence
         id="feTurbulence13085"
         result="turbulence"
         baseFrequency="0.013 0.013"
         seed="1"
         numOctaves="5"
         type="fractalNoise"
         style="stroke-linecap:butt;stroke-linejoin:round;stroke-miterlimit:100000" />
      <feDisplacementMap
         id="feDisplacementMap13087"
         xChannelSelector="R"
         yChannelSelector="G"
         scale="6.6"
         in2="turbulence"
         in="SourceGraphic"
         style="stroke-linecap:butt;stroke-linejoin:round;stroke-miterlimit:100000" />
    </filter>
    <filter
       id="filter1328"
       inkscape:label="Roughen"
       style="color-interpolation-filters:sRGB;stroke-linecap:butt;stroke-linejoin:round;stroke-miterlimit:100000">
      <feTurbulence
         id="feTurbulence1324"
         result="turbulence"
         baseFrequency="0.013 0.013"
         seed="1"
         numOctaves="5"
         type="fractalNoise"
         style="stroke-linecap:butt;stroke-linejoin:round;stroke-miterlimit:100000" />
      <feDisplacementMap
         id="feDisplacementMap1326"
         xChannelSelector="R"
         yChannelSelector="G"
         scale="6.6"
         in2="turbulence"
         in="SourceGraphic"
         style="stroke-linecap:butt;stroke-linejoin:round;stroke-miterlimit:100000" />
    </filter>
    <filter
       id="filter1334"
       inkscape:label="Roughen"
       style="color-interpolation-filters:sRGB;stroke-linecap:butt;stroke-linejoin:round;stroke-miterlimit:100000">
      <feTurbulence
         id="feTurbulence1330"
         result="turbulence"
         baseFrequency="0.013 0.013"
         seed="1"
         numOctaves="5"
         type="fractalNoise"
         style="stroke-linecap:butt;stroke-linejoin:round;stroke-miterlimit:100000" />
      <feDisplacementMap
         id="feDisplacementMap1332"
         xChannelSelector="R"
         yChannelSelector="G"
         scale="6.6"
         in2="turbulence"
         in="SourceGraphic"
         style="stroke-linecap:butt;stroke-linejoin:round;stroke-miterlimit:100000" />
    </filter>
    <filter
       id="filter1340"
       inkscape:label="Roughen"
       style="color-interpolation-filters:sRGB;stroke-linecap:butt;stroke-linejoin:round;stroke-miterlimit:100000">
      <feTurbulence
         id="feTurbulence1336"
         result="turbulence"
         baseFrequency="0.013 0.013"
         seed="1"
         numOctaves="5"
         type="fractalNoise"
         style="stroke-linecap:butt;stroke-linejoin:round;stroke-miterlimit:100000" />
      <feDisplacementMap
         id="feDisplacementMap1338"
         xChannelSelector="R"
         yChannelSelector="G"
         scale="6.6"
         in2="turbulence"
         in="SourceGraphic"
         style="stroke-linecap:butt;stroke-linejoin:round;stroke-miterlimit:100000" />
    </filter>
  </defs>
  <sodipodi:namedview
     fit-margin-bottom="0"
     fit-margin-right="0"
     fit-margin-left="0"
     fit-margin-top="0"
     inkscape:window-maximized="1"
     inkscape:window-y="27"
     inkscape:window-x="0"
     inkscape:window-height="1376"
     inkscape:window-width="2560"
     showgrid="false"
     inkscape:document-rotation="0"
     inkscape:current-layer="layer1"
     inkscape:document-units="mm"
     inkscape:cy="33.943456"
     inkscape:cx="24.877625"
     inkscape:zoom="4.0045326"
     inkscape:pageshadow="2"
     inkscape:pageopacity="0.0"
     borderopacity="1.0"
     bordercolor="#666666"
     pagecolor="#ffffff"
     id="base" />
  <metadata
     id="metadata1382">
    <rdf:RDF>
      <cc:Work
         rdf:about="">
        <dc:format>image/svg+xml</dc:format>
        <dc:type
           rdf:resource="http://purl.org/dc/dcmitype/StillImage" />
        <dc:title></dc:title>
      </cc:Work>
    </rdf:RDF>
  </metadata>
  <g
     transform="translate(-91.388683,-139.18579)"
     id="layer1"
     inkscape:groupmode="layer"
     inkscape:label="Layer 1">
    <g
       transform="translate(-80.981038,-25.052699)"
       id="g4083">
      <g
         id="g4"
         style="display:inline;fill:#ffffff;stroke:#000000;stroke-width:0.785872;stroke-linecap:round;stroke-linejoin:round;stroke-miterlimit:100;stroke-dasharray:none;filter:url(#filter13089)"
         transform="matrix(0.25187394,0,0,0.25714235,179.27831,165.00992)">
        <path
           id="path6"
           inkscape:connector-curvature="0"
           d="m 20.5,22.5 -3,15 h 14 l -3,-15 z"
           style="fill:#ffffff;stroke:#000000;stroke-width:0.785872;stroke-linecap:butt;stroke-linejoin:round;stroke-miterlimit:100;stroke-dasharray:none" />
        <path
           id="path8"
           inkscape:connector-curvature="0"
           d="M 18.5,27.5 C 10,30 5.5,39 5.5,44.5 c 0,1.5 6.5,2 8,2 h 11 11 c 1.5,0 8,-0.5 8,-2 0,-5.5 -4.5,-14.5 -13,-17 l -5,1 -1,8 -1,-8 z"
           style="fill:#ffffff;stroke:#000000;stroke-width:0.785872;stroke-linecap:butt;stroke-linejoin:round;stroke-miterlimit:100;stroke-dasharray:none" />
        <path
           id="path10"
           inkscape:connector-curvature="0"
           d="m 24.5,3.5 c -5.5,0 -10,5 -10,11 0,6 4.5,11 10,11 5.5,0 10,-5 10,-11 0,-6 -4.5,-11 -10,-11 z"
           style="fill:#ffffff;stroke:#000000;stroke-width:0.785872;stroke-linecap:butt;stroke-linejoin:round;stroke-miterlimit:100;stroke-dasharray:none" />
        <path
           id="path12"
           inkscape:connector-curvature="0"
           d="m 24.5,1.5 c -4,0 -6,1.5 -7,4 -3,1 -4,5 -3,9 2,-2 3,-4 4,-7 11,8 10,-3 16,7 1,-8 -4,-13 -10,-13 z"
           style="fill:#ffffff;stroke:#000000;stroke-width:0.785872;stroke-linecap:butt;stroke-linejoin:round;stroke-miterlimit:100;stroke-dasharray:none" />
        <path
           id="path14"
           inkscape:connector-curvature="0"
           d="m 18.5,25.5 c 1,1 2,2 5,3 -2,1 -2,3 -2,4 -2,-1 -4,-4 -4,-6 z"
           style="fill:#ffffff;stroke:#000000;stroke-width:0.785872;stroke-linecap:butt;stroke-linejoin:round;stroke-miterlimit:100;stroke-dasharray:none" />
        <path
           id="path16"
           inkscape:connector-curvature="0"
           d="m 30.5,25.5 c -1,1 -2,2 -5,3 2,1 2,3 2,4 2,-1 4,-4 4,-6 z"
           style="fill:#ffffff;stroke:#000000;stroke-width:0.785872;stroke-linecap:butt;stroke-linejoin:round;stroke-miterlimit:100;stroke-dasharray:none" />
        <path
           id="path18"
           inkscape:connector-curvature="0"
           d="m 14.5,38.5 -1,8 m 22,0 -1,-8"
           style="fill:#ffffff;stroke:#000000;stroke-width:0.785872;stroke-linecap:butt;stroke-linejoin:round;stroke-miterlimit:100;stroke-dasharray:none" />
      </g>
      <g
         transform="matrix(-0.10099901,0,0,0.10362787,161.64898,168.66097)"
         id="g12630"
         style="display:inline;stroke-width:1.95494;stroke-linecap:butt;stroke-linejoin:round;stroke-miterlimit:100;stroke-dasharray:none;filter:url(#filter13077)">
        <path
           d="m -201.29,39.491 c 1.67,-7.193 0.8,-44.422 27.32,-45.291 25.44,-0.8345 32.09,20.451 34.27,32.107 7.03,37.452 -2.21,62.67 -55.47,47.491 -6.04,-3.488 -5.522,-7.06035 -7.07473,-9.686687 0,0 -1.87199,-7.234327 0.95473,-24.620313 z"
           style="fill:#ffffff;fill-opacity:1;fill-rule:evenodd;stroke:#000000;stroke-width:1.95494;stroke-linecap:butt;stroke-linejoin:round;stroke-miterlimit:100;stroke-dasharray:none;stroke-opacity:1"
           sodipodi:nodetypes="czscsc"
           id="path12632"
           inkscape:connector-curvature="0" />
        <path
           d="m -222.67,95.621 c 2.45,-6.763 3.53,-15.809 11.96,-20 l 39.11,-11.875 40.84,11.271 c 7.19,2.581 10.59,13.056 14.02,20.98 -2.24,1.607 -4.16,3.986 -6.83,4.533 h -92.68 c -3,-1.115 -4.53,-3.123 -6.42,-4.909 z"
           style="fill:#ffffff;fill-opacity:1;fill-rule:evenodd;stroke:#000000;stroke-width:1.95494;stroke-linecap:butt;stroke-linejoin:round;stroke-miterlimit:100;stroke-dasharray:none;stroke-opacity:1"
           sodipodi:nodetypes="cccccccc"
           id="path12634"
           inkscape:connector-curvature="0" />
        <path
           d="m -183.12,55.085 c 0.21,5.059 0.76,9.729 -1.61,14.018 l 5.29914,26.696973 14.80344,-0.03972 L -155.71,66.871 -156.6,52.406 Z"
           style="fill:#ffffff;fill-opacity:1;fill-rule:evenodd;stroke:#000000;stroke-width:1.95494;stroke-linecap:butt;stroke-linejoin:round;stroke-miterlimit:100;stroke-dasharray:none;stroke-opacity:1"
           sodipodi:nodetypes="ccccccc"
           id="path12636"
           inkscape:connector-curvature="0" />
        <path
           d="m -192.41,27.913 c 0.51,7.997 0.73,15.995 2.53,23.992 0,0 8.14,9.156 12.69,11.174 4.54,2.018 5.81,1.745 10.1,-0.063 4.28,-1.807 14.2,-10.606 14.2,-10.606 4.27,-17.29 5.73,-33.659 -13.26,-43.311 l -13.76,20.456 -0.38,-7.955 -3.53,6.061 c -2.4,-2.905 -6.99,-1.94 -8.59,0.252 z"
           style="fill:#ffffff;fill-opacity:1;fill-rule:evenodd;stroke:#000000;stroke-width:1.95494;stroke-linecap:butt;stroke-linejoin:round;stroke-miterlimit:100;stroke-dasharray:none;stroke-opacity:1"
           sodipodi:nodetypes="cczzcccccc"
           id="path12638"
           inkscape:connector-curvature="0" />
      </g>
      <g
         style="display:inline;stroke-width:1.94059;stroke-linecap:butt;stroke-linejoin:round;stroke-miterlimit:100;stroke-dasharray:none;filter:url(#filter13083)"
         id="g4847"
         transform="matrix(0.12269306,0,0,0.12588592,214.28252,168.20608)">
        <path
           inkscape:connector-curvature="0"
           id="path12688"
           sodipodi:nodetypes="czzscccccc"
           style="fill:#ffffff;fill-opacity:1;fill-rule:evenodd;stroke:#000000;stroke-width:1.94059;stroke-linecap:butt;stroke-linejoin:round;stroke-miterlimit:100;stroke-dasharray:none;stroke-opacity:1"
           d="m -219.05,48.495 c 7.46,0.072 16.05,-1.643 17.76,-9.004 1.67,-7.193 0.8,-44.422 27.32,-45.291 25.44,-0.8345 32.09,20.451 34.27,32.107 7.03,37.452 -2.21,62.67 -55.47,47.491 -6.04,-3.488 -9.67,-3.652 -13.78,-9.19 3.62,0.099 5.51,0.341 6.05,-3.221 -4.81,0.197 -9.52,-0.243 -11.35,-8.599 8.77,1.213 12.8,-2.582 16.54,-8.333 -4.44,6.978 -9.67,10.893 -21.34,4.04 z" />
        <path
           inkscape:connector-curvature="0"
           id="path12692"
           sodipodi:nodetypes="cccccccc"
           style="fill:#ffffff;fill-opacity:1;fill-rule:evenodd;stroke:#000000;stroke-width:1.94059;stroke-linecap:butt;stroke-linejoin:round;stroke-miterlimit:100;stroke-dasharray:none;stroke-opacity:1"
           d="m -222.67,95.621 c 2.45,-6.763 3.53,-15.809 11.96,-20 l 39.11,-11.875 40.84,11.271 c 7.19,2.581 10.59,13.056 14.02,20.98 -2.24,1.607 -4.16,3.986 -6.83,4.533 h -92.68 c -3,-1.115 -4.53,-3.123 -6.42,-4.909 z" />
        <path
           inkscape:connector-curvature="0"
           id="path12694"
           sodipodi:nodetypes="ccccccc"
           style="fill:#ffffff;fill-opacity:1;fill-rule:evenodd;stroke:#000000;stroke-width:1.94059;stroke-linecap:butt;stroke-linejoin:round;stroke-miterlimit:100;stroke-dasharray:none;stroke-opacity:1"
           d="m -183.12,55.085 c 0.21,5.059 0.76,9.729 -1.61,14.018 l 5.29914,26.696973 14.80344,-0.03972 L -155.71,66.871 -156.6,52.406 Z" />
        <path
           inkscape:connector-curvature="0"
           id="path12696"
           sodipodi:nodetypes="cczzcccccc"
           style="fill:#ffffff;fill-opacity:1;fill-rule:evenodd;stroke:#000000;stroke-width:1.94059;stroke-linecap:butt;stroke-linejoin:round;stroke-miterlimit:100;stroke-dasharray:none;stroke-opacity:1"
           d="m -192.41,27.913 c 0.51,7.997 0.73,15.995 2.53,23.992 0,0 8.14,9.156 12.69,11.174 4.54,2.018 5.81,1.745 10.1,-0.063 4.28,-1.807 14.2,-10.606 14.2,-10.606 4.27,-17.29 5.73,-33.659 -13.26,-43.311 l -13.76,20.456 -0.38,-7.955 -3.53,6.061 c -2.4,-2.905 -6.99,-1.94 -8.59,0.252 z" />
      </g>
      <g
         transform="matrix(0.25187394,0,0,0.25714235,179.27831,165.00992)"
         style="display:inline;fill:#ffffff;stroke:#000000;stroke-width:0.785872;stroke-linecap:round;stroke-linejoin:round;stroke-miterlimit:100;stroke-dasharray:none;filter:url(#filter13089)"
         id="g4025">
        <path
           style="fill:#ffffff;stroke:#000000;stroke-width:0.785872;stroke-linecap:butt;stroke-linejoin:round;stroke-miterlimit:100;stroke-dasharray:none"
           d="m 20.5,22.5 -3,15 h 14 l -3,-15 z"
           inkscape:connector-curvature="0"
           id="path4011" />
        <path
           style="fill:#ffffff;stroke:#000000;stroke-width:0.785872;stroke-linecap:butt;stroke-linejoin:round;stroke-miterlimit:100;stroke-dasharray:none"
           d="M 18.5,27.5 C 10,30 5.5,39 5.5,44.5 c 0,1.5 6.5,2 8,2 h 11 11 c 1.5,0 8,-0.5 8,-2 0,-5.5 -4.5,-14.5 -13,-17 l -5,1 -1,8 -1,-8 z"
           inkscape:connector-curvature="0"
           id="path4013" />
        <path
           style="fill:#ffffff;stroke:#000000;stroke-width:0.785872;stroke-linecap:butt;stroke-linejoin:round;stroke-miterlimit:100;stroke-dasharray:none"
           d="m 24.5,3.5 c -5.5,0 -10,5 -10,11 0,6 4.5,11 10,11 5.5,0 10,-5 10,-11 0,-6 -4.5,-11 -10,-11 z"
           inkscape:connector-curvature="0"
           id="path4015" />
        <path
           style="fill:#ffffff;stroke:#000000;stroke-width:0.785872;stroke-linecap:butt;stroke-linejoin:round;stroke-miterlimit:100;stroke-dasharray:none"
           d="m 24.5,1.5 c -4,0 -6,1.5 -7,4 -3,1 -4,5 -3,9 2,-2 3,-4 4,-7 11,8 10,-3 16,7 1,-8 -4,-13 -10,-13 z"
           inkscape:connector-curvature="0"
           id="path4017" />
        <path
           style="fill:#ffffff;stroke:#000000;stroke-width:0.785872;stroke-linecap:butt;stroke-linejoin:round;stroke-miterlimit:100;stroke-dasharray:none"
           d="m 18.5,25.5 c 1,1 2,2 5,3 -2,1 -2,3 -2,4 -2,-1 -4,-4 -4,-6 z"
           inkscape:connector-curvature="0"
           id="path4019" />
        <path
           style="fill:#ffffff;stroke:#000000;stroke-width:0.785872;stroke-linecap:butt;stroke-linejoin:round;stroke-miterlimit:100;stroke-dasharray:none"
           d="m 30.5,25.5 c -1,1 -2,2 -5,3 2,1 2,3 2,4 2,-1 4,-4 4,-6 z"
           inkscape:connector-curvature="0"
           id="path4021" />
        <path
           style="fill:#ffffff;stroke:#000000;stroke-width:0.785872;stroke-linecap:butt;stroke-linejoin:round;stroke-miterlimit:100;stroke-dasharray:none"
           d="m 14.5,38.5 -1,8 m 22,0 -1,-8"
           inkscape:connector-curvature="0"
           id="path4023" />
      </g>
      <g
         style="display:inline;stroke-width:1.95494;stroke-linecap:butt;stroke-linejoin:round;stroke-miterlimit:100;stroke-dasharray:none;filter:url(#filter13077)"
         id="g4035"
         transform="matrix(-0.10099901,0,0,0.10362787,161.64898,168.66097)">
        <path
           inkscape:connector-curvature="0"
           id="path4027"
           sodipodi:nodetypes="czscsc"
           style="fill:#ffffff;fill-opacity:1;fill-rule:evenodd;stroke:#000000;stroke-width:1.95494;stroke-linecap:butt;stroke-linejoin:round;stroke-miterlimit:100;stroke-dasharray:none;stroke-opacity:1"
           d="m -201.29,39.491 c 1.67,-7.193 0.8,-44.422 27.32,-45.291 25.44,-0.8345 32.09,20.451 34.27,32.107 7.03,37.452 -2.21,62.67 -55.47,47.491 -6.04,-3.488 -5.522,-7.06035 -7.07473,-9.686687 0,0 -1.87199,-7.234327 0.95473,-24.620313 z" />
        <path
           inkscape:connector-curvature="0"
           id="path4029"
           sodipodi:nodetypes="cccccccc"
           style="fill:#ffffff;fill-opacity:1;fill-rule:evenodd;stroke:#000000;stroke-width:1.95494;stroke-linecap:butt;stroke-linejoin:round;stroke-miterlimit:100;stroke-dasharray:none;stroke-opacity:1"
           d="m -222.67,95.621 c 2.45,-6.763 3.53,-15.809 11.96,-20 l 39.11,-11.875 40.84,11.271 c 7.19,2.581 10.59,13.056 14.02,20.98 -2.24,1.607 -4.16,3.986 -6.83,4.533 h -92.68 c -3,-1.115 -4.53,-3.123 -6.42,-4.909 z" />
        <path
           inkscape:connector-curvature="0"
           id="path4031"
           sodipodi:nodetypes="ccccccc"
           style="fill:#ffffff;fill-opacity:1;fill-rule:evenodd;stroke:#000000;stroke-width:1.95494;stroke-linecap:butt;stroke-linejoin:round;stroke-miterlimit:100;stroke-dasharray:none;stroke-opacity:1"
           d="m -183.12,55.085 c 0.21,5.059 0.76,9.729 -1.61,14.018 l 5.29914,26.696973 14.80344,-0.03972 L -155.71,66.871 -156.6,52.406 Z" />
        <path
           inkscape:connector-curvature="0"
           id="path4033"
           sodipodi:nodetypes="cczzcccccc"
           style="fill:#ffffff;fill-opacity:1;fill-rule:evenodd;stroke:#000000;stroke-width:1.95494;stroke-linecap:butt;stroke-linejoin:round;stroke-miterlimit:100;stroke-dasharray:none;stroke-opacity:1"
           d="m -192.41,27.913 c 0.51,7.997 0.73,15.995 2.53,23.992 0,0 8.14,9.156 12.69,11.174 4.54,2.018 5.81,1.745 10.1,-0.063 4.28,-1.807 14.2,-10.606 14.2,-10.606 4.27,-17.29 5.73,-33.659 -13.26,-43.311 l -13.76,20.456 -0.38,-7.955 -3.53,6.061 c -2.4,-2.905 -6.99,-1.94 -8.59,0.252 z" />
      </g>
      <g
         transform="matrix(0.12269306,0,0,0.12588592,214.28252,168.20608)"
         id="g4045"
         style="display:inline;stroke-width:1.94059;stroke-linecap:butt;stroke-linejoin:round;stroke-miterlimit:100;stroke-dasharray:none;filter:url(#filter13083)">
        <path
           d="m -219.05,48.495 c 7.46,0.072 16.05,-1.643 17.76,-9.004 1.67,-7.193 0.8,-44.422 27.32,-45.291 25.44,-0.8345 32.09,20.451 34.27,32.107 7.03,37.452 -2.21,62.67 -55.47,47.491 -6.04,-3.488 -9.67,-3.652 -13.78,-9.19 3.62,0.099 5.51,0.341 6.05,-3.221 -4.81,0.197 -9.52,-0.243 -11.35,-8.599 8.77,1.213 12.8,-2.582 16.54,-8.333 -4.44,6.978 -9.67,10.893 -21.34,4.04 z"
           style="fill:#ffffff;fill-opacity:1;fill-rule:evenodd;stroke:#000000;stroke-width:1.94059;stroke-linecap:butt;stroke-linejoin:round;stroke-miterlimit:100;stroke-dasharray:none;stroke-opacity:1"
           sodipodi:nodetypes="czzscccccc"
           id="path4037"
           inkscape:connector-curvature="0" />
        <path
           d="m -222.67,95.621 c 2.45,-6.763 3.53,-15.809 11.96,-20 l 39.11,-11.875 40.84,11.271 c 7.19,2.581 10.59,13.056 14.02,20.98 -2.24,1.607 -4.16,3.986 -6.83,4.533 h -92.68 c -3,-1.115 -4.53,-3.123 -6.42,-4.909 z"
           style="fill:#ffffff;fill-opacity:1;fill-rule:evenodd;stroke:#000000;stroke-width:1.94059;stroke-linecap:butt;stroke-linejoin:round;stroke-miterlimit:100;stroke-dasharray:none;stroke-opacity:1"
           sodipodi:nodetypes="cccccccc"
           id="path4039"
           inkscape:connector-curvature="0" />
        <path
           d="m -183.12,55.085 c 0.21,5.059 0.76,9.729 -1.61,14.018 l 5.29914,26.696973 14.80344,-0.03972 L -155.71,66.871 -156.6,52.406 Z"
           style="fill:#ffffff;fill-opacity:1;fill-rule:evenodd;stroke:#000000;stroke-width:1.94059;stroke-linecap:butt;stroke-linejoin:round;stroke-miterlimit:100;stroke-dasharray:none;stroke-opacity:1"
           sodipodi:nodetypes="ccccccc"
           id="path4041"
           inkscape:connector-curvature="0" />
        <path
           d="m -192.41,27.913 c 0.51,7.997 0.73,15.995 2.53,23.992 0,0 8.14,9.156 12.69,11.174 4.54,2.018 5.81,1.745 10.1,-0.063 4.28,-1.807 14.2,-10.606 14.2,-10.606 4.27,-17.29 5.73,-33.659 -13.26,-43.311 l -13.76,20.456 -0.38,-7.955 -3.53,6.061 c -2.4,-2.905 -6.99,-1.94 -8.59,0.252 z"
           style="fill:#ffffff;fill-opacity:1;fill-rule:evenodd;stroke:#000000;stroke-width:1.94059;stroke-linecap:butt;stroke-linejoin:round;stroke-miterlimit:100;stroke-dasharray:none;stroke-opacity:1"
           sodipodi:nodetypes="cczzcccccc"
           id="path4043"
           inkscape:connector-curvature="0" />
      </g>
    </g>
  </g>
</svg>
