<?xml version="1.0" encoding="UTF-8" standalone="no"?>
<svg
   xmlns:dc="http://purl.org/dc/elements/1.1/"
   xmlns:cc="http://creativecommons.org/ns#"
   xmlns:rdf="http://www.w3.org/1999/02/22-rdf-syntax-ns#"
   xmlns:svg="http://www.w3.org/2000/svg"
   xmlns="http://www.w3.org/2000/svg"
   xmlns:xlink="http://www.w3.org/1999/xlink"
   xmlns:sodipodi="http://sodipodi.sourceforge.net/DTD/sodipodi-0.dtd"
   xmlns:inkscape="http://www.inkscape.org/namespaces/inkscape"
   version="1.1"
   id="Layer_1"
   x="0px"
   y="0px"
   viewBox="0 0 402 175"
   enable-background="new 0 0 402 175"
   xml:space="preserve"
   sodipodi:docname="spm.svg"
   inkscape:version="0.92.2 5c3e80d, 2017-08-06"><metadata
     id="metadata121"><rdf:RDF><cc:Work
         rdf:about=""><dc:format>image/svg+xml</dc:format><dc:type
           rdf:resource="http://purl.org/dc/dcmitype/StillImage" /><dc:title></dc:title></cc:Work></rdf:RDF></metadata><sodipodi:namedview
     pagecolor="#ffffff"
     bordercolor="#666666"
     borderopacity="1"
     objecttolerance="10"
     gridtolerance="10"
     guidetolerance="10"
     inkscape:pageopacity="0"
     inkscape:pageshadow="2"
     inkscape:window-width="1743"
     inkscape:window-height="936"
     id="namedview119"
     showgrid="false"
     inkscape:pagecheckerboard="true"
     inkscape:zoom="1.3397168"
     inkscape:cx="370.04865"
     inkscape:cy="87.5"
     inkscape:window-x="439"
     inkscape:window-y="132"
     inkscape:window-maximized="0"
     inkscape:current-layer="g114" /><defs
     id="defs8"><polygon
       id="specials-spm-a"
       points="0 .371 8.544 .371 8.544 8.909 0 8.909" /><polygon
       id="specials-spm-c"
       points="0 .259 8.544 .259 8.544 8.797 0 8.797" /><polygon
       id="specials-spm-e"
       points="0 .249 8.544 .249 8.544 8.787 0 8.787" /><polygon
       id="specials-spm-g"
       points="0 .517 8.544 .517 8.544 9.056 0 9.056" /><polygon
       id="specials-spm-i"
       points="0 .345 8.544 .345 8.544 8.884 0 8.884" /><polygon
       id="specials-spm-k"
       points="0 .002 8.544 .002 8.544 8.54 0 8.54" /></defs><g
     transform="matrix(-1,0,0,1,401.74434,-1)"
     id="g116"
     style="fill:none;fill-rule:evenodd"><polygon
       points="368.315,141.155 384.269,141.155 384.269,149.131 376.142,149.131 376.142,157.144 368.315,157.144 368.315,165.156 360.339,165.156 360.339,157.144 360.339,154.13 360.339,149.131 360.339,146.474 360.339,141.12 352.361,141.12 352.361,133.142 368.315,133.142 368.315,137.895 368.315,141.12 "
       id="polygon10"
       style="stroke:#ea7600;stroke-width:3;stroke-linecap:round;stroke-linejoin:round;stroke-opacity:0.9881657" /><polyline
       points="360.339 77.056 360.339 85.034 368.315 85.034 368.315 93.046 376.293 93.046 376.293 77.022 384.269 77.022 392.247 77.022 400.224 77.022 400.224 69.044 392.247 69.044 392.247 69.008 392.247 66.749 392.247 65.022 392.247 61.032 392.247 53.02 384.269 53.02 384.269 61.032 376.293 61.032 376.293 53.02 368.315 53.02 366.065 53.02 360.339 53.02 360.339 58.99 360.339 60.996 360.339 61.032 352.361 61.032 352.361 67.55 352.361 69.008 352.361 77.022"
       id="polyline12"
       style="stroke:#ea7600;stroke-width:3;stroke-linecap:round;stroke-linejoin:round;stroke-opacity:0.9881657" /><polygon
       points="376.293,25.925 376.293,28.948 376.293,28.983 384.269,28.983 384.269,45.008 392.247,45.008 392.247,52.984 384.269,52.984 384.269,60.988 376.293,60.988 376.293,36.96 368.315,36.96 368.315,28.948 360.339,28.948 360.339,22.907 360.339,20.971 360.339,12.958 368.315,12.958 368.315,20.971 376.293,20.971 "
       id="polygon14"
       style="stroke:#ea7600;stroke-width:3;stroke-linecap:round;stroke-linejoin:round;stroke-opacity:0.9881657" /><polygon
       points="352.362,20.971 360.339,20.971 360.339,28.983 368.316,28.983 368.316,36.995 376.292,36.995 376.292,52.984 368.316,52.984 364.108,52.984 360.339,52.984 360.339,53.02 360.339,58.272 360.339,60.996 352.362,60.996 352.362,69.008 344.385,69.008 344.385,60.996 344.385,57.008 344.385,53.02 352.362,53.02 352.362,44.972 336.408,44.972 336.408,36.995 352.362,36.995 "
       id="polygon16"
       style="stroke:#ea7600;stroke-width:3;stroke-linecap:round;stroke-linejoin:round;stroke-opacity:0.9881657" /><polygon
       points="336.408,117.118 336.408,119.98 336.408,121.142 336.408,125.095 336.408,133.107 344.385,133.107 344.385,149.167 360.338,149.132 360.338,141.155 352.362,141.155 352.362,125.095 360.338,125.095 360.338,119.632 360.338,117.118 360.338,117.083 368.315,117.083 368.315,109.071 368.315,106.691 368.315,101.093 360.338,101.093 360.338,93.081 352.362,93.081 352.362,101.093 349.308,101.093 344.385,101.093 336.408,101.093 336.408,109.071 346.144,109.071 344.385,109.105 336.408,109.105 "
       id="polygon18"
       style="stroke:#ea7600;stroke-width:3;stroke-linecap:round;stroke-linejoin:round;stroke-opacity:0.9881657" /><g
       transform="translate(336,4.319)"
       id="g24"
       style="stroke:#ea7600;stroke-width:3;stroke-linecap:round;stroke-linejoin:round;stroke-opacity:0.9881657"><path
         d="m 16.3619,152.8254 h 7.977 l -7.977,0.035 z m -15.954,-24.002 v 16.024 4.478 1.666 1.834 8.012 h 7.977 v 8.012 h 15.954 v -8.012 -2.665 -1.323 -3.989 -8.013 h -7.977 -7.977 v -16.024 z"
         id="path20"
         inkscape:connector-curvature="0"
         style="stroke:#ea7600;stroke-opacity:0.9881657" /><polygon
         points="24.339,16.582 8.385,16.582 8.385,16.652 16.362,16.652 16.362,24.629 16.362,24.664 16.362,32.641 0.408,32.641 0.408,32.64 0.408,24.664 0.408,24.629 0.408,16.652 0.408,8.639 8.385,8.639 8.385,0.627 24.339,0.627 "
         id="polygon22"
         style="stroke:#ea7600;stroke-opacity:0.9881657" /></g><polygon
       points="344.385,52.985 344.385,61.032 344.385,63.568 344.385,69.045 352.362,69.045 352.362,77.057 360.339,77.057 360.339,93.081 352.362,93.081 352.362,101.059 346.953,101.059 344.385,101.059 336.408,101.059 336.408,85.07 336.408,85.069 336.408,69.045 336.408,63.568 336.408,61.032 336.408,52.985 336.408,45.008 344.385,45.008 352.362,45.008 352.362,52.985 "
       id="polygon26"
       style="stroke:#ea7600;stroke-width:3;stroke-linecap:round;stroke-linejoin:round;stroke-opacity:0.9881657" /><path
       d="m 368.3155,69.0448 v 15.953 m 23.9307,32.1554 h 7.977 m -31.9077,0 v 7.978"
       id="path28"
       inkscape:connector-curvature="0"
       style="stroke:#ea7600;stroke-width:3;stroke-linecap:round;stroke-linejoin:round;stroke-opacity:0.9881657" /><polygon
       points="360.339,117.118 368.316,117.118 368.316,109.105 376.292,109.105 376.292,109.071 376.292,106.656 376.292,101.093 392.246,101.093 392.246,109.071 384.269,109.071 384.269,117.118 384.269,119.442 384.269,125.095 376.292,125.095 376.292,125.13 392.246,125.13 392.246,133.142 392.246,136.405 392.246,141.12 368.38,141.12 368.38,133.142 376.292,133.142 376.292,133.107 352.362,133.107 352.362,125.13 360.339,125.13 "
       id="polygon30"
       style="stroke:#ea7600;stroke-width:3;stroke-linecap:round;stroke-linejoin:round;stroke-opacity:0.9881657" /><path
       d="m 392.2462,93.0467 h 7.977 l -7.977,0.034 h -7.977 z m -31.908,-8.013 v 16.025 h 3.2 4.777 v 8.012 h 7.977 v -8.012 h 7.977 7.977 v 0.035 8.047 h -7.977 v 15.955 h 15.954 v -9.896 -6.059 -8.047 -1.485 -22.552 h -7.977 -5.807 -2.17 -7.977 v 8.012 1.937 6.075 h -7.977 v -8.047 z"
       id="path32"
       inkscape:connector-curvature="0"
       style="stroke:#ea7600;stroke-width:3;stroke-linecap:round;stroke-linejoin:round;stroke-opacity:0.9881657" /><polygon
       points="295.957,141.155 280.003,141.155 280.003,149.131 288.13,149.131 288.13,157.144 295.957,157.144 295.957,165.156 303.934,165.156 303.934,157.144 303.934,154.13 303.934,149.131 303.934,146.474 303.934,141.12 311.911,141.12 311.911,133.142 295.957,133.142 295.957,137.895 295.957,141.12 "
       id="polygon34"
       style="stroke:#ea7600;stroke-linecap:round;stroke-linejoin:round;stroke-opacity:0.9881657" /><polyline
       points="311.911 77.021 311.911 69.008 311.911 67.55 311.911 61.032 303.934 61.032 303.934 60.997 303.934 58.99 303.934 53.02 298.208 53.02 295.957 53.02 287.98 53.02 287.98 61.032 280.003 61.032 280.003 53.02 272.027 53.02 272.027 61.032 272.027 65.021 272.027 66.75 272.027 69.008 272.027 69.044 264.05 69.044 264.05 77.021 272.027 77.021 280.003 77.021 287.98 77.021 287.98 93.046 295.957 93.046 295.957 85.034 303.934 85.034 303.934 77.056"
       id="polyline36"
       style="stroke:#ea7600;stroke-linecap:round;stroke-linejoin:round;stroke-opacity:0.9881657" /><polygon
       points="287.98,25.925 287.98,28.948 287.98,28.983 280.003,28.983 280.003,45.008 272.027,45.008 272.027,52.984 280.003,52.984 280.003,60.988 287.98,60.988 287.98,36.96 295.957,36.96 295.957,28.948 303.934,28.948 303.934,22.907 303.934,20.971 303.934,12.958 295.957,12.958 295.957,20.971 287.98,20.971 "
       id="polygon38"
       style="stroke:#ea7600;stroke-linecap:round;stroke-linejoin:round;stroke-opacity:0.9881657" /><polygon
       points="311.91,20.971 303.933,20.971 303.933,28.983 295.956,28.983 295.956,36.995 287.98,36.995 287.98,52.984 295.956,52.984 300.164,52.984 303.933,52.984 303.933,53.02 303.933,58.272 303.933,60.996 311.91,60.996 311.91,69.008 319.887,69.008 319.887,60.996 319.887,57.008 319.887,53.02 311.91,53.02 311.91,44.972 327.864,44.972 327.864,36.995 311.91,36.995 "
       id="polygon40"
       style="stroke:#ea7600;stroke-linecap:round;stroke-linejoin:round;stroke-opacity:0.9881657" /><polygon
       points="314.964,101.093 311.91,101.093 311.91,93.081 303.933,93.081 303.933,101.093 295.956,101.093 295.956,106.691 295.956,109.071 295.956,117.083 303.933,117.083 303.933,117.118 303.933,119.632 303.933,125.095 311.91,125.095 311.91,141.155 303.933,141.155 303.933,149.132 319.887,149.167 319.887,133.107 327.864,133.107 327.864,125.095 327.864,121.142 327.864,119.98 327.864,117.118 327.864,109.105 319.887,109.105 318.128,109.071 327.864,109.071 327.864,101.093 319.887,101.093 "
       id="polygon42"
       style="stroke:#ea7600;stroke-linecap:round;stroke-linejoin:round;stroke-opacity:0.9881657" /><path
       d="m 311.9107,157.1795 -7.977,-0.035 h 7.977 z m 7.977,-24.037 v 16.024 h -7.977 -7.977 v 8.013 3.989 1.323 2.665 8.012 h 15.954 v -8.012 h 7.977 v -8.012 -1.834 -1.666 -4.478 -16.024 z"
       id="path44"
       inkscape:connector-curvature="0"
       style="stroke:#ea7600;stroke-linecap:round;stroke-linejoin:round;stroke-opacity:0.9881657" /><polygon
       points="303.934,20.901 319.888,20.901 319.888,20.971 311.911,20.971 311.911,28.948 311.911,28.983 311.911,36.96 327.865,36.96 327.865,36.959 327.865,28.983 327.865,28.948 327.865,20.971 327.865,12.958 319.888,12.958 319.888,4.946 303.934,4.946 "
       id="polygon46"
       style="stroke:#ea7600;stroke-linecap:round;stroke-linejoin:round;stroke-opacity:0.9881657" /><polygon
       points="319.888,52.985 319.888,61.032 319.888,63.568 319.888,69.045 311.911,69.045 311.911,77.057 303.934,77.057 303.934,93.081 311.911,93.081 311.911,101.059 317.32,101.059 319.888,101.059 327.865,101.059 327.865,85.07 327.865,85.069 327.865,69.045 327.865,63.568 327.865,61.032 327.865,52.985 327.865,45.008 319.888,45.008 311.911,45.008 311.911,52.985 "
       id="polygon48"
       style="stroke:#ea7600;stroke-linecap:round;stroke-linejoin:round;stroke-opacity:0.9881657" /><path
       d="m 295.9566,69.0448 v 15.953 m -23.9301,32.1554 h -7.977 m 31.9071,0 v 7.978"
       id="path50"
       inkscape:connector-curvature="0"
       style="stroke:#ea7600;stroke-linecap:round;stroke-linejoin:round;stroke-opacity:0.9881657" /><polygon
       points="303.934,117.118 295.957,117.118 295.957,109.105 287.98,109.105 287.98,109.071 287.98,106.656 287.98,101.093 272.027,101.093 272.027,109.071 280.003,109.071 280.003,117.118 280.003,119.442 280.003,125.095 287.98,125.095 287.98,125.13 272.027,125.13 272.027,133.142 272.027,136.405 272.027,141.12 295.892,141.12 295.892,133.142 287.98,133.142 287.98,133.107 311.911,133.107 311.911,125.13 303.934,125.13 "
       id="polygon52"
       style="stroke:#ea7600;stroke-linecap:round;stroke-linejoin:round;stroke-opacity:0.9881657" /><path
       d="m 280.003,93.0809 h -7.977 l -7.977,-0.034 h 7.977 z m 15.954,-8.047 v 8.047 h -7.977 v -6.075 -1.937 -8.012 h -7.977 -2.17 -5.807 -7.977 v 22.551 1.486 8.047 6.059 9.896 h 15.954 v -15.955 h -7.977 v -8.047 -0.035 h 7.977 7.977 v 8.012 h 7.977 v -8.012 h 4.777 3.2 v -16.025 z"
       id="path54"
       inkscape:connector-curvature="0"
       style="stroke:#ea7600;stroke-linecap:round;stroke-linejoin:round;stroke-opacity:0.9881657" /><g
       transform="translate(0,0.319)"
       id="g114"
       style="stroke:#ea7600;stroke-opacity:0.9881657"><path
         class="fill"
         d="m 264.6886,133.6262 c 1.668,1.668 1.669,4.373 0,6.041 -1.669,1.669 -4.373,1.669 -6.041,0 -1.669,-1.668 -1.669,-4.373 0,-6.041 1.669,-1.669 4.373,-1.669 6.041,0 m 16.2675,16.2666 c 1.668,1.669 1.668,4.373 0,6.042 -1.669,1.669 -4.373,1.668 -6.042,0 -1.667,-1.668 -1.668,-4.373 10e-4,-6.041 1.668,-1.669 4.373,-1.669 6.041,-0.001 m 16.2676,16.2675 c 1.668,1.669 1.669,4.373 0,6.042 -1.669,1.668 -4.374,1.668 -6.042,-0.001 -1.668,-1.668 -1.668,-4.372 0,-6.041 1.668,-1.668 4.373,-1.668 6.042,0 m -32.4966,-65.1084 c 1.669,1.669 1.669,4.372 0,6.041 -1.668,1.669 -4.372,1.669 -6.041,0 -1.667,-1.668 -1.668,-4.372 0,-6.041 1.669,-1.669 4.374,-1.668 6.041,0 m 16.2686,16.2676 c 1.668,1.668 1.668,4.372 0,6.041 -1.669,1.669 -4.373,1.669 -6.041,0 -1.669,-1.668 -1.669,-4.373 -10e-4,-6.042 1.669,-1.668 4.373,-1.668 6.042,0.001 m 16.2666,16.2666 c 1.669,1.669 1.669,4.373 0,6.042 -1.669,1.669 -4.372,1.668 -6.041,0 -1.668,-1.668 -1.669,-4.373 0,-6.042 1.669,-1.668 4.374,-1.668 6.041,0 m 16.2676,16.2676 c 1.668,1.669 1.669,4.373 0,6.041 -1.668,1.67 -4.373,1.669 -6.041,0 -1.668,-1.667 -1.669,-4.372 0,-6.041 1.669,-1.668 4.373,-1.668 6.041,0 m -48.7622,-81.376 c 1.668,1.669 1.668,4.373 0,6.042 -1.669,1.669 -4.374,1.668 -6.042,0 -1.668,-1.669 -1.668,-4.373 0,-6.042 1.669,-1.669 4.373,-1.668 6.042,0 m 16.2666,16.2676 c 1.669,1.669 1.669,4.372 0,6.041 -1.669,1.669 -4.372,1.669 -6.041,0 -1.668,-1.668 -1.669,-4.372 0,-6.041 1.669,-1.669 4.373,-1.668 6.041,0 m 16.2675,16.2676 c 1.668,1.668 1.669,4.372 0,6.041 -1.668,1.669 -4.373,1.668 -6.041,0 -1.668,-1.669 -1.669,-4.372 0,-6.041 1.668,-1.669 4.373,-1.668 6.041,0 m 16.2676,16.2666 c 1.668,1.669 1.669,4.373 0,6.042 -1.669,1.669 -4.373,1.668 -6.041,0 -1.668,-1.669 -1.669,-4.373 0,-6.042 1.669,-1.668 4.373,-1.668 6.041,0 M 281.9601,51.2853 c 1.668,1.669 1.668,4.373 0,6.042 -1.669,1.669 -4.374,1.668 -6.042,0 -1.668,-1.669 -1.668,-4.373 0,-6.042 1.668,-1.668 4.373,-1.668 6.042,0 m 16.2661,16.2676 c 1.669,1.669 1.669,4.372 0,6.042 -1.669,1.668 -4.372,1.668 -6.041,0 -1.668,-1.669 -1.669,-4.373 0,-6.042 1.669,-1.669 4.373,-1.668 6.041,0 m 16.2675,16.2676 c 1.668,1.668 1.669,4.372 0,6.041 -1.668,1.669 -4.373,1.668 -6.041,0 -1.668,-1.668 -1.669,-4.372 0,-6.041 1.669,-1.669 4.373,-1.668 6.041,0 M 281.9986,18.7121 c 1.669,1.668 1.669,4.372 0,6.041 -1.669,1.669 -4.372,1.669 -6.042,0 -1.667,-1.668 -1.668,-4.373 0,-6.041 1.67,-1.669 4.374,-1.668 6.042,0"
         id="path56"
         inkscape:connector-curvature="0"
         style="fill:#ea7600;fill-opacity:1;stroke:#ea7600;stroke-opacity:0.9881657" /><g
         transform="translate(0,15)"
         id="g63"
         style="fill:#ea7600;fill-opacity:1;stroke:#ea7600;stroke-opacity:1;opacity:1"><mask
           id="specials-spm-b"
           class="fill"
           fill="#fff"><use
             xlink:href="#specials-spm-a"
             id="use58"
             x="0"
             y="0"
             width="100%"
             height="100%" /></mask><path
           class="fill"
           d="m 6.7789,1.1799 c 2.353,1.729 2.354,5.189 0.003,6.919 -1.465,1.078 -3.544,1.081 -5.012,0.006 -2.358,-1.727 -2.361,-5.196 -0.004,-6.926 1.467,-1.077 3.546,-1.077 5.013,10e-4"
           mask="url(#specials-spm-b)"
           id="path61"
           inkscape:connector-curvature="0"
           style="fill:#ea7600;fill-opacity:1;stroke:#ea7600;stroke-opacity:1" /></g><g
         transform="translate(0,48)"
         id="g70"
         style="fill:#ea7600;fill-opacity:1;stroke:#ea7600;stroke-opacity:1;opacity:1"><mask
           id="specials-spm-d"
           class="fill"
           fill="#fff"><use
             xlink:href="#specials-spm-c"
             id="use65"
             x="0"
             y="0"
             width="100%"
             height="100%" /></mask><path
           class="fill"
           d="m 6.7789,1.0676 c 2.353,1.729 2.354,5.189 0.003,6.919 -1.465,1.079 -3.544,1.081 -5.012,0.007 -2.358,-1.727 -2.361,-5.197 -0.004,-6.927 1.467,-1.077 3.546,-1.077 5.013,0.001"
           mask="url(#specials-spm-d)"
           id="path68"
           inkscape:connector-curvature="0"
           style="fill:#ea7600;fill-opacity:1;stroke:#ea7600;stroke-opacity:1" /></g><g
         transform="translate(0,80)"
         id="g77"
         style="fill:#ea7600;fill-opacity:1;stroke:#ea7600;stroke-opacity:1;opacity:1"><mask
           id="specials-spm-f"
           class="fill"
           fill="#fff"><use
             xlink:href="#specials-spm-e"
             id="use72"
             x="0"
             y="0"
             width="100%"
             height="100%" /></mask><path
           class="fill"
           d="m 6.7789,1.0578 c 2.353,1.729 2.354,5.189 0.003,6.919 -1.465,1.078 -3.544,1.081 -5.012,0.006 -2.358,-1.727 -2.361,-5.196 -0.004,-6.926 1.467,-1.077 3.546,-1.077 5.013,0.001"
           mask="url(#specials-spm-f)"
           id="path75"
           inkscape:connector-curvature="0"
           style="fill:#ea7600;fill-opacity:1;stroke:#ea7600;stroke-opacity:1" /></g><g
         transform="translate(0,87)"
         id="g84"
         style="fill:#ea7600;fill-opacity:1;stroke:#ea7600;stroke-opacity:1;opacity:1"><mask
           id="specials-spm-h"
           class="fill"
           fill="#fff"><use
             xlink:href="#specials-spm-g"
             id="use79"
             x="0"
             y="0"
             width="100%"
             height="100%" /></mask><path
           class="fill"
           d="m 6.7789,1.3254 c 2.353,1.729 2.354,5.189 0.003,6.92 -1.466,1.078 -3.545,1.081 -5.012,0.006 -2.358,-1.728 -2.361,-5.197 -0.004,-6.927 1.467,-1.077 3.546,-1.077 5.013,10e-4"
           mask="url(#specials-spm-h)"
           id="path82"
           inkscape:connector-curvature="0"
           style="fill:#ea7600;fill-opacity:1;stroke:#ea7600;stroke-opacity:1" /></g><g
         transform="translate(0,122)"
         id="g91"
         style="fill:#ea7600;fill-opacity:1;stroke:#ea7600;stroke-opacity:1;opacity:1"><mask
           id="specials-spm-j"
           class="fill"
           fill="#fff"><use
             xlink:href="#specials-spm-i"
             id="use86"
             x="0"
             y="0"
             width="100%"
             height="100%" /></mask><path
           class="fill"
           d="m 6.7789,1.1535 c 2.353,1.729 2.354,5.189 0.003,6.92 -1.465,1.078 -3.544,1.081 -5.012,0.006 -2.358,-1.727 -2.361,-5.197 -0.004,-6.927 1.467,-1.077 3.546,-1.076 5.013,10e-4"
           mask="url(#specials-spm-j)"
           id="path89"
           inkscape:connector-curvature="0"
           style="fill:#ea7600;fill-opacity:1;stroke:#ea7600;stroke-opacity:1" /></g><g
         transform="translate(0,151)"
         id="g98"
         style="fill:#ea7600;fill-opacity:1;stroke:#ea7600;stroke-opacity:1;opacity:1"><mask
           id="specials-spm-l"
           class="fill"
           fill="#fff"><use
             xlink:href="#specials-spm-k"
             id="use93"
             x="0"
             y="0"
             width="100%"
             height="100%" /></mask><path
           class="fill"
           d="m 6.7789,0.8098 c 2.353,1.729 2.354,5.189 0.003,6.919 -1.465,1.079 -3.544,1.082 -5.012,0.007 -2.358,-1.727 -2.361,-5.197 -0.004,-6.927 1.467,-1.077 3.546,-1.076 5.013,0.001"
           mask="url(#specials-spm-l)"
           id="path96"
           inkscape:connector-curvature="0"
           style="fill:#ea7600;fill-opacity:1;stroke:#ea7600;stroke-opacity:1" /></g><path
         class="fill"
         d="m 298.2657,34.9797 c 1.668,1.668 1.669,4.372 0,6.041 -1.668,1.668 -4.373,1.668 -6.042,0 -1.667,-1.668 -1.668,-4.373 0,-6.042 1.669,-1.668 4.375,-1.668 6.042,10e-4 m 16.2681,16.2666 c 1.669,1.669 1.669,4.372 0,6.041 -1.669,1.669 -4.374,1.669 -6.042,0 -1.667,-1.668 -1.668,-4.372 0,-6.041 1.669,-1.668 4.374,-1.668 6.042,0 M 298.3058,2.4045 c 1.668,1.669 1.669,4.373 0,6.042 -1.669,1.669 -4.373,1.669 -6.041,0 -1.669,-1.668 -1.669,-4.373 0,-6.041 1.669,-1.669 4.373,-1.669 6.041,-10e-4 m 16.267,16.2676 c 1.668,1.669 1.668,4.373 0,6.042 -1.668,1.668 -4.373,1.668 -6.042,0 -1.667,-1.668 -1.668,-4.373 0,-6.042 1.669,-1.668 4.374,-1.668 6.042,0 m 16.335,16.8789 c 1.669,1.668 1.669,4.372 0,6.041 -1.668,1.669 -4.372,1.668 -6.041,0 -1.668,-1.668 -1.669,-4.372 0,-6.041 1.669,-1.669 4.373,-1.669 6.041,0 m 0,-33.6182 c 1.669,1.668 1.669,4.373 0,6.041 -1.668,1.669 -4.372,1.669 -6.041,0 -1.668,-1.668 -1.669,-4.373 0,-6.041 1.669,-1.669 4.373,-1.669 6.041,0 m 0,64.9775 c 1.669,1.668 1.669,4.372 0,6.041 -1.668,1.669 -4.372,1.668 -6.041,0 -1.668,-1.668 -1.669,-4.373 0,-6.041 1.669,-1.669 4.373,-1.669 6.041,0 m 0,32.3213 c 1.669,1.668 1.669,4.372 0,6.041 -1.668,1.669 -4.372,1.668 -6.041,0 -1.668,-1.669 -1.669,-4.373 0,-6.041 1.669,-1.669 4.373,-1.669 6.041,0 m 0,34.3955 c 1.669,1.667 1.669,4.372 0,6.041 -1.668,1.669 -4.372,1.668 -6.041,0 -1.668,-1.669 -1.669,-4.373 0,-6.041 1.669,-1.67 4.373,-1.669 6.041,0 m 0,34.0801 c 1.669,1.668 1.669,4.373 0,6.041 -1.668,1.669 -4.372,1.669 -6.041,0 -1.668,-1.668 -1.669,-4.373 0,-6.041 1.669,-1.669 4.373,-1.669 6.041,0"
         id="path100"
         inkscape:connector-curvature="0"
         style="fill:#ea7600;fill-opacity:1;stroke:#ea7600;stroke-opacity:0.9881657" /><polyline
         points="295.285 5.426 266.019 5.426 251.805 19.64 4.272 19.64"
         id="polyline102"
         style="stroke:#ea7600;stroke-width:3;stroke-linecap:round;stroke-linejoin:round;stroke-opacity:0.9881657" /><polyline
         points="295.957 38.314 266.691 38.314 252.477 52.529 4.272 52.529"
         id="polyline104"
         style="stroke:#ea7600;stroke-width:3;stroke-linecap:round;stroke-linejoin:round;stroke-opacity:0.9881657" /><polyline
         points="262.088 136.227 252.476 126.615 4.272 126.615"
         id="polyline106"
         style="stroke:#ea7600;stroke-width:3;stroke-linecap:round;stroke-linejoin:round;stroke-opacity:0.9881657" /><polyline
         points="295.957 169.486 266.691 169.486 252.477 155.27 4.272 155.27"
         id="polyline108"
         style="stroke:#ea7600;stroke-width:3;stroke-linecap:round;stroke-linejoin:round;stroke-opacity:0.9881657" /><polyline
         points="261.505 70.561 247.292 84.776 4.272 84.776"
         id="polyline110"
         style="stroke:#ea7600;stroke-width:3;stroke-linecap:round;stroke-linejoin:round;stroke-opacity:0.9881657" /><polyline
         points="4.272 91.786 252.476 91.786 266.69 77.571 319.883 77.571 329.698 67.757"
         id="polyline112"
         style="stroke:#ea7600;stroke-width:3;stroke-linecap:round;stroke-linejoin:round;stroke-opacity:0.9881657" /></g></g></svg>