<?xml version="1.0" encoding="UTF-8" standalone="no"?>
<svg
   xmlns:dc="http://purl.org/dc/elements/1.1/"
   xmlns:cc="http://creativecommons.org/ns#"
   xmlns:rdf="http://www.w3.org/1999/02/22-rdf-syntax-ns#"
   xmlns:svg="http://www.w3.org/2000/svg"
   xmlns="http://www.w3.org/2000/svg"
   xmlns:sodipodi="http://sodipodi.sourceforge.net/DTD/sodipodi-0.dtd"
   xmlns:inkscape="http://www.inkscape.org/namespaces/inkscape"
   version="1.1"
   x="0px"
   y="0px"
   viewBox="0 0 100 125"
   enable-background="new 0 0 100 100"
   xml:space="preserve"
   id="svg8"
   sodipodi:docname="trust.svg"
   inkscape:version="0.92.4 (5da689c313, 2019-01-14)"><metadata
     id="metadata14"><rdf:RDF><cc:Work
         rdf:about=""><dc:format>image/svg+xml</dc:format><dc:type
           rdf:resource="http://purl.org/dc/dcmitype/StillImage" /><dc:title></dc:title></cc:Work></rdf:RDF></metadata><defs
     id="defs12" /><sodipodi:namedview
     pagecolor="#ffffff"
     bordercolor="#666666"
     borderopacity="1"
     objecttolerance="10"
     gridtolerance="10"
     guidetolerance="10"
     inkscape:pageopacity="0"
     inkscape:pageshadow="2"
     inkscape:window-width="640"
     inkscape:window-height="480"
     id="namedview10"
     showgrid="false"
     inkscape:zoom="1.888"
     inkscape:cx="40.730932"
     inkscape:cy="62.5"
     inkscape:window-x="0"
     inkscape:window-y="27"
     inkscape:window-maximized="0"
     inkscape:current-layer="svg8" /><path
     d="M80.521,94.641H17.422c-0.04,0-0.08-0.001-0.119-0.004c-5.441-0.109-9.833-4.564-9.833-10.024  c0-1.877,0.517-3.647,1.537-5.263c0.083-0.133,0.184-0.253,0.299-0.358c0.323-0.295,0.817-0.525,1.254-0.525h13.666L24.225,9.517  c0-0.967,0.784-1.75,1.75-1.75h44.179c0.454,0,0.867,0.173,1.177,0.455h0c0,0.001,0.001,0.001,0.001,0.002  c0.031,0.028,0.062,0.058,0.091,0.089l18.468,19.465c0.299,0.313,0.482,0.736,0.484,1.203c0,0,0,0,0,0.001v0.001  c0,0.001,0,0.002,0,0.003v55.927c0.021,0.563,0.056,4.238-2.481,6.935C86.149,93.701,83.668,94.641,80.521,94.641z M25.685,91.141  h54.836c2.144,0,3.767-0.569,4.823-1.692c1.646-1.748,1.535-4.366,1.534-4.392c-0.002-0.035-0.003-0.071-0.003-0.106V30.735H70.153  c-0.966,0-1.75-0.783-1.75-1.75V11.267H27.725V84.95C27.729,85.038,27.835,88.385,25.685,91.141z M11.554,81.966  c-0.393,0.836-0.585,1.708-0.585,2.646c0,3.599,2.933,6.526,6.538,6.526c2.235,0,3.938-0.586,5.063-1.743  c1.708-1.755,1.656-4.36,1.655-4.386v-3.044H11.554z M71.903,27.235h12.648L71.903,13.903V27.235z M68.333,81.5h-23  c-0.966,0-1.75-0.783-1.75-1.75v-6.163L34.708,51.4c-0.215-0.54-0.15-1.15,0.176-1.632C35.21,49.288,35.753,49,36.333,49h5.468  c0.734,0,1.39,0.458,1.643,1.147c0.092,0.251,0.185,0.502,0.29,0.753c2.047,4.88,5.738,7.627,7.676,6.81  c1.51-0.633,2.161-3.37,1.584-6.657c-0.089-0.51,0.051-1.032,0.384-1.428C53.712,49.229,54.202,49,54.719,49h4.228  c0.517,0,1.008,0.229,1.34,0.625c0.333,0.396,0.473,0.918,0.384,1.428c-0.577,3.287,0.075,6.024,1.584,6.657  c0.904,0.382,2.193-0.001,3.535-1.044c1.625-1.264,3.134-3.365,4.142-5.767c0.105-0.252,0.198-0.502,0.29-0.752  C70.475,49.458,71.131,49,71.865,49h5.468c0.581,0,1.124,0.288,1.449,0.769c0.326,0.481,0.391,1.092,0.176,1.632l-8.875,22.187  v6.163C70.083,80.717,69.3,81.5,68.333,81.5z M47.083,78h19.5v-3h-19.5V78z M46.518,71.5h20.63l7.6-19h-1.694  c-1.248,2.876-3.058,5.329-5.116,6.929c-2.403,1.868-4.903,2.401-7.036,1.51c-2.688-1.127-4.133-4.336-3.916-8.438H56.68  c0.217,4.103-1.227,7.312-3.915,8.438c-4.059,1.7-9.357-1.998-12.152-8.438h-1.694L46.518,71.5z M75.333,46.833  c-2.573,0-4.667-2.093-4.667-4.666S72.76,37.5,75.333,37.5S80,39.594,80,42.167S77.907,46.833,75.333,46.833z M75.333,41  c-0.644,0-1.167,0.523-1.167,1.167c0,0.643,0.523,1.166,1.167,1.166c0.643,0,1.167-0.523,1.167-1.166  C76.5,41.523,75.977,41,75.333,41z M56.833,46.833c-2.573,0-4.667-2.093-4.667-4.666S54.26,37.5,56.833,37.5  s4.667,2.094,4.667,4.667S59.407,46.833,56.833,46.833z M56.833,41c-0.644,0-1.167,0.523-1.167,1.167  c0,0.643,0.523,1.166,1.167,1.166c0.643,0,1.167-0.523,1.167-1.166C58,41.523,57.477,41,56.833,41z M38.333,46.833  c-2.573,0-4.667-2.093-4.667-4.666S35.76,37.5,38.333,37.5S43,39.594,43,42.167S40.907,46.833,38.333,46.833z M38.333,41  c-0.644,0-1.167,0.523-1.167,1.167c0,0.643,0.523,1.166,1.167,1.166c0.643,0,1.167-0.523,1.167-1.166  C39.5,41.523,38.977,41,38.333,41z"
     id="path2" /></svg>